<?xml version="1.0" encoding="UTF-8"?>
<svg id="Layer_2" data-name="Layer 2" xmlns="http://www.w3.org/2000/svg" viewBox="0 0 1072.31 222.48">
  <defs>
    <style>
      .cls-1 {
        fill: #fff;
        stroke: #000;
        stroke-miterlimit: 10;
        stroke-width: .5px;
      }

      .cls-2 {
        fill: #38daff;
        stroke-width: 0px;
      }
    </style>
  </defs>
  <g id="Layer_1-2" data-name="Layer 1">
    <g>
      <rect class="cls-1" x="828.48" y="20.29" width="12" height="12.02" transform="translate(18.28 201.98) rotate(-13.95)"/>
      <rect class="cls-1" x="813.49" y="42.33" width="11.01" height="11" transform="translate(547.94 822.15) rotate(-74.05)"/>
      <path class="cls-1" d="m689.86,214.33l-6.4-8.01-.03-54.16c0-14.42-9.45-24.35-23.05-24.34-4.64,0-16,5.94-29.43,15.56-3.04-9.45-11.21-15.54-21.77-15.53-4.48,0-15.2,5.61-28.15,14.59v-14.58s-41.12,15.88-41.12,15.88l8.64,6.41.03,56.24-6.4,8.01,45.92-.02-7.04-8.01-.03-61.05c3.84-1.77,7.52-2.89,10.24-2.89,4.96,0,8.48,4.64,8.48,11.05l.03,52.88-7.04,8.01,45.92-.02-6.4-8.01-.03-54.16c0-2.24-.16-4.49-.64-6.57,3.84-1.92,7.84-3.21,10.88-3.21,4.96,0,8.48,4.64,8.48,11.05l.03,52.88-7.04,8.01,45.92-.02Z"/>
      <rect class="cls-1" x="879.47" y="13.25" width="11" height="11.01" transform="translate(32.32 256.5) rotate(-16.79)"/>
      <path class="cls-1" d="m861.34,46.93s18,5,14.01,23.03c-3.42,15.46-13.98,33.05-13.98,33.05l.06,119.17,42.99-9.03-32.05-100.13s30,10,40,12c10.57,2.11,16,2,16,2,0,0,5.99-9.02,5.99-16.03,0-11.2-5.01-18.02-5.01-18.02,0,0-1.79-2.01-21-.99-19,1.01-38.99,9.03-38.99,9.03,0,0,16.99-10.02,21.98-37.06,5.08-27.57-30.01-31.03-30.01-31.03v14.02Z"/>
      <rect class="cls-1" x="841.47" y=".25" width="7" height="7.01"/>
      <path class="cls-1" d="m219.63,130.92c12.96,0,1.93,30.92,22.09,30.91,6.4,0,11.2-5.29,11.19-12.02,0-12.18-14.25-21.78-33.29-21.77-25.12.01-43.99,19.09-43.97,46.65.01,25.48,16.82,41.81,41.14,41.8,22.24-.01,37.91-17.16,40.14-43.92-3.99,14.26-11.35,21.48-23.67,21.48-15.52,0-25.6-13.77-25.61-34.28,0-16.02,4.62-28.84,11.98-28.85Z"/>
      <path class="cls-1" d="m.78,214.67l47.79-.02-3.01-14.42,14.98-38.06,34.59-.02,16.22,38.85-19.39,13.63,79.79-.04-12.8-13.61L100.49,62.2l-47.59,8.64,11.61,19.02-44.14,110.78L.78,214.67Zm76.59-96.84l15.97,35.71-31,.02,15.03-35.73Z"/>
      <path class="cls-1" d="m357.1,214.49l-6.4-8.01-.03-54.16c0-14.42-9.45-24.35-23.05-24.34-4.64,0-16.16,6.1-29.91,15.88l-.03-65.37-41.11,15.88,8.64,6.41.05,105.75-6.39,8.01,45.27-.02-6.4-8.01-.03-59.93c4.32-2.41,8.8-4.01,12-4.01,4.96,0,8.48,4.64,8.48,11.21l.03,52.72-7.04,8.01,45.92-.02Z"/>
      <path class="cls-1" d="m537.21,171.62c-.01-24.04-20.82-43.73-47.38-43.72-26.24.01-47.67,19.73-47.65,43.77.01,24.52,21.46,44.69,47.7,44.68,26.56-.01,47.35-20.21,47.33-44.73Zm-61.43.19c-.01-28.84,4.62-41.18,14.06-41.19,9.6,0,13.76,13.61,13.78,41.17.01,29.32-4.46,41.82-13.74,41.83-9.92,0-14.09-13.77-14.1-41.81Z"/>
      <path class="cls-1" d="m409.21,142.68c5.44,0,6.09,16.98,19.69,16.98,7.68,0,12.96-6.26,12.95-15.39,0-9.61-6.57-16.34-15.85-16.34-9.12,0-17.91,7.06-24.63,17.48v-17.47s-41.12,15.88-41.12,15.88l8.64,5.6.03,57.04-6.4,8.01,46.56-.02-7.68-8.01-.03-56.56c2.24-4.01,5.28-7.21,7.84-7.21Z"/>
      <path class="cls-1" d="m792.37,93.02s-5,6.83-4.99,18.03c0,7.01,6.01,16.02,6.01,16.02,0,0,5.43.11,16-2.01,10-2.01,39.99-12.04,39.99-12.04l-31.95,100.16,43,8.99-.06-119.17s-10.58-17.58-14.01-33.04c-4.01-18.02,13.99-23.04,13.99-23.04v-14.02s-35.1,3.49-29.99,31.06c5.01,27.04,22.02,37.04,22.02,37.04,0,0-20-8-39-8.99-19.21-1-21,1.01-21,1.01Z"/>
      <polygon class="cls-1" points="947.91 149.15 947.94 206.19 941.54 214.21 986.82 214.18 980.41 206.18 980.37 127.66 939.27 143.55 947.91 149.15"/>
      <polygon class="cls-1" points="963.38 108.47 987.64 122.48 1001.62 98.19 977.37 84.18 963.38 108.47"/>
      <rect class="cls-1" x="899.48" y="41.29" width="15.02" height="15" transform="translate(657.85 922.25) rotate(-77.16)"/>
      <path class="cls-1" d="m1034.77,130.52c12.96,0,1.94,30.92,22.09,30.91,6.4,0,11.2-5.29,11.19-12.02,0-12.18-14.25-21.78-33.29-21.77-25.12.01-43.99,19.09-43.97,46.65.01,25.48,16.82,41.81,41.14,41.8,22.24-.01,37.91-17.16,40.14-43.92-3.99,14.26-11.35,21.48-23.67,21.48-15.52,0-25.6-13.77-25.61-34.28,0-16.02,4.63-28.84,11.98-28.85Z"/>
      <rect class="cls-1" x="782.5" y="53.36" width="5" height="5.01" transform="translate(9.69 190.92) rotate(-13.95)"/>
      <rect class="cls-1" x="934.48" y="52.28" width="4.01" height="4" transform="translate(614.14 935.22) rotate(-73.22)"/>
      <rect class="cls-1" x="914.47" y="27.26" width="4.01" height="4" transform="translate(684.28 916.31) rotate(-77.16)"/>
      <path class="cls-1" d="m779.01,153.72c0-15.38-12.17-25.95-29.45-25.94-12.32,0-53.43,13-53.42,31.59,0,7.21,4.81,12.34,11.84,12.33,17.76,0,9.91-27.56,18.06-34.46,1.92-1.6,4.32-2.57,7.2-2.57,7.68,0,13.44,7.36,13.45,19.7v7.85c-20.63,10.26-50.38,21.17-50.37,36.72,0,9.93,8.33,17.3,19.53,17.3,10.08,0,21.91-6.26,30.87-15.72v15.7s40.96-14.28,40.96-14.28l-8.64-5.92-.02-42.3Zm-40.61,47.45c-6.24,0-10.56-5.28-10.57-12.81,0-10.9,6.87-17.31,18.87-23.08l.02,31.4c-2.08,2.57-4.8,4.49-8.32,4.49Z"/>
    </g>
    <rect class="cls-2" x="851.67" y="55.77" width="18.25" height="18.25" transform="translate(298.01 -589.67) rotate(45)"/>
  </g>
</svg>