<svg width="94" height="60" viewBox="0 0 94 60" fill="none" xmlns="http://www.w3.org/2000/svg">
<g filter="url(#filter0_d_139_71)">
<rect width="85.58" height="51.35" rx="13.42" fill="#B66F3B" shape-rendering="crispEdges"/>
<rect x="5" y="5" width="76" height="41.76" rx="13.42" fill="white" fill-opacity="0.5"/>
<path d="M16.1856 30.1851C13.4116 30.1851 11.6014 28.2837 11.6014 25.0148C11.6014 23.8948 11.7837 22.9311 12.1614 22.1367C12.9037 20.5217 14.3102 19.6362 16.1856 19.6362C18.4517 19.6362 20.1187 20.9776 20.3531 23.0222H18.7512C18.4387 21.7329 17.5661 21.0557 16.1726 21.0557C14.3623 21.0557 13.2032 22.4622 13.2032 24.9106C13.2032 27.307 14.3233 28.7656 16.1856 28.7656C17.6833 28.7656 18.5689 27.9972 18.7903 26.6297H20.4443C20.3401 28.7916 18.7122 30.1851 16.1856 30.1851ZM24.632 30.0289C24.085 30.0289 23.6553 29.9507 23.3297 29.8075C22.7046 29.5079 22.4571 28.8307 22.4571 27.4763V24.0251H21.3501V22.7227H22.4571V20.9385H24.046V22.7227H25.7781V24.0251H24.046V27.5804C24.046 27.867 24.072 28.0884 24.1241 28.2316C24.2413 28.5312 24.5669 28.6353 25.2962 28.6353C25.5697 28.6353 25.739 28.6353 25.8041 28.6223V29.9116C25.3483 29.9898 24.9576 30.0289 24.632 30.0289ZM26.9553 22.7227H28.479L28.5441 23.6864C29.0651 22.9962 29.7032 22.5925 30.3674 22.5534C30.8493 22.5274 31.2921 22.5664 31.6698 22.6836V24.0771C31.1488 23.9209 30.6539 23.8557 30.1981 23.8948C29.56 23.9339 28.9609 24.3246 28.5441 25.0018V29.9247H26.9553V22.7227ZM34.3594 30.0549C33.2524 30.0549 32.9659 29.3647 32.9659 27.8539V19.6362H34.5548V27.9711C34.5548 28.6353 34.7371 28.7786 35.5315 28.7265V29.8856C35.1669 30.0028 34.7761 30.0549 34.3594 30.0549Z" fill="white"/>
</g>
<defs>
<filter id="filter0_d_139_71" x="0" y="0" width="93.5801" height="59.35" filterUnits="userSpaceOnUse" color-interpolation-filters="sRGB">
<feFlood flood-opacity="0" result="BackgroundImageFix"/>
<feColorMatrix in="SourceAlpha" type="matrix" values="0 0 0 0 0 0 0 0 0 0 0 0 0 0 0 0 0 0 127 0" result="hardAlpha"/>
<feOffset dx="4" dy="4"/>
<feGaussianBlur stdDeviation="2"/>
<feComposite in2="hardAlpha" operator="out"/>
<feColorMatrix type="matrix" values="0 0 0 0 0 0 0 0 0 0 0 0 0 0 0 0 0 0 0.25 0"/>
<feBlend mode="normal" in2="BackgroundImageFix" result="effect1_dropShadow_139_71"/>
<feBlend mode="normal" in="SourceGraphic" in2="effect1_dropShadow_139_71" result="shape"/>
</filter>
</defs>
</svg>
