<svg width="145" height="60" viewBox="0 0 145 60" fill="none" xmlns="http://www.w3.org/2000/svg">
<g filter="url(#filter0_d_139_65)">
<rect width="136.93" height="51.35" rx="13.42" fill="#B66F3B" shape-rendering="crispEdges"/>
<rect x="5" y="5" width="127.35" height="41.76" rx="13.42" fill="white" fill-opacity="0.5"/>
<path d="M15.4433 30.1851C12.9298 30.1851 11.2888 28.9088 11.3409 27.2028H12.9819L12.9688 27.346C12.9688 28.1925 14.1279 28.8828 15.5735 28.8828C16.8368 28.8828 17.6312 28.2967 17.6312 27.32C17.6312 26.4214 16.98 25.9395 15.2219 25.3665C14.4014 25.119 13.7242 24.8585 13.1642 24.5981C12.1223 24.1292 11.6014 23.439 11.6014 22.4492C11.6014 20.7692 12.9688 19.6362 15.1828 19.6362C15.9382 19.6362 16.5893 19.7403 17.1233 19.9617C18.1782 20.3785 18.8294 21.1729 18.9205 22.1106H17.3056C17.1363 21.4204 16.2898 20.9385 15.1047 20.9385C13.9716 20.9385 13.1902 21.5376 13.1902 22.319C13.1902 22.5925 13.2684 22.8008 13.4377 22.9702C13.607 23.1525 13.8284 23.3088 14.1149 23.426C14.4144 23.5692 14.8833 23.7255 15.5084 23.9209C16.4591 24.2204 17.1754 24.5069 17.6833 24.7804C18.7643 25.3534 19.2331 26.1218 19.2331 27.32C19.2331 29.1302 17.8266 30.1851 15.4433 30.1851ZM20.4054 19.6362H21.9943V23.7385C22.6585 23.0874 23.4008 22.6836 24.1952 22.5404C24.3515 22.5143 24.5078 22.5013 24.6771 22.5013C25.0808 22.5013 25.4715 22.6055 25.8492 22.8008C26.6176 23.2176 27.0474 24.0902 27.0474 25.2753V29.9247H25.4585V25.4837C25.4585 24.4548 25.0808 23.9339 24.3255 23.9339C23.5701 23.9339 22.7887 24.3246 21.9943 25.093V29.9247H20.4054V19.6362ZM28.8952 22.7227H30.484V29.9247H28.8952V22.7227ZM28.6607 20.665C28.6607 20.105 29.0775 19.7013 29.6896 19.7013C30.3017 19.7013 30.7184 20.105 30.7184 20.665C30.7184 21.199 30.3017 21.6157 29.6896 21.6157C29.0775 21.6157 28.6607 21.199 28.6607 20.665ZM33.3769 24.0251H31.9444V22.7227H33.3769V22.1367C33.3769 20.4306 34.0802 19.6492 35.7602 19.6492C35.9816 19.6492 36.2291 19.6622 36.5156 19.7013V21.0687L36.0207 21.0427C35.2784 21.0427 34.9658 21.3292 34.9658 22.1106V22.7227H36.6328V24.0251H34.9658V29.9247H33.3769V24.0251ZM40.6951 30.0289C40.1481 30.0289 39.7183 29.9507 39.3928 29.8075C38.7676 29.5079 38.5202 28.8307 38.5202 27.4763V24.0251H37.4132V22.7227H38.5202V20.9385H40.109V22.7227H41.8412V24.0251H40.109V27.5804C40.109 27.867 40.1351 28.0884 40.1872 28.2316C40.3044 28.5312 40.63 28.6353 41.3593 28.6353C41.6328 28.6353 41.8021 28.6353 41.8672 28.6223V29.9116C41.4114 29.9898 41.0207 30.0289 40.6951 30.0289Z" fill="white"/>
</g>
<defs>
<filter id="filter0_d_139_65" x="0" y="0" width="144.93" height="59.35" filterUnits="userSpaceOnUse" color-interpolation-filters="sRGB">
<feFlood flood-opacity="0" result="BackgroundImageFix"/>
<feColorMatrix in="SourceAlpha" type="matrix" values="0 0 0 0 0 0 0 0 0 0 0 0 0 0 0 0 0 0 127 0" result="hardAlpha"/>
<feOffset dx="4" dy="4"/>
<feGaussianBlur stdDeviation="2"/>
<feComposite in2="hardAlpha" operator="out"/>
<feColorMatrix type="matrix" values="0 0 0 0 0 0 0 0 0 0 0 0 0 0 0 0 0 0 0.25 0"/>
<feBlend mode="normal" in2="BackgroundImageFix" result="effect1_dropShadow_139_65"/>
<feBlend mode="normal" in="SourceGraphic" in2="effect1_dropShadow_139_65" result="shape"/>
</filter>
</defs>
</svg>
