<svg width="214" height="60" viewBox="0 0 214 60" fill="none" xmlns="http://www.w3.org/2000/svg">
<g filter="url(#filter0_d_139_68)">
<rect width="205.4" height="51.35" rx="13.42" fill="#B66F3B" shape-rendering="crispEdges"/>
<rect x="5" y="5" width="195.81" height="41.76" rx="13.42" fill="white" fill-opacity="0.5"/>
<path d="M15.4433 30.1851C12.9298 30.1851 11.2888 28.9088 11.3409 27.2028H12.9819L12.9688 27.346C12.9688 28.1925 14.1279 28.8828 15.5735 28.8828C16.8368 28.8828 17.6312 28.2967 17.6312 27.32C17.6312 26.4214 16.98 25.9395 15.2219 25.3665C14.4014 25.119 13.7242 24.8585 13.1642 24.5981C12.1223 24.1292 11.6014 23.439 11.6014 22.4492C11.6014 20.7692 12.9688 19.6362 15.1828 19.6362C15.9382 19.6362 16.5893 19.7403 17.1233 19.9617C18.1782 20.3785 18.8294 21.1729 18.9205 22.1106H17.3056C17.1363 21.4204 16.2898 20.9385 15.1047 20.9385C13.9716 20.9385 13.1902 21.5376 13.1902 22.319C13.1902 22.5925 13.2684 22.8008 13.4377 22.9702C13.607 23.1525 13.8284 23.3088 14.1149 23.426C14.4144 23.5692 14.8833 23.7255 15.5084 23.9209C16.4591 24.2204 17.1754 24.5069 17.6833 24.7804C18.7643 25.3534 19.2331 26.1218 19.2331 27.32C19.2331 29.1302 17.8266 30.1851 15.4433 30.1851ZM20.4054 22.7227H21.9031L21.9682 23.4911C22.5803 22.8529 23.3096 22.5404 24.1562 22.5404C26.0055 22.5404 27.2818 24.0381 27.2818 26.2651C27.2818 27.0595 27.1385 27.7628 26.852 28.3488C26.279 29.534 25.2371 30.1851 23.9868 30.1851C23.1664 30.1851 22.5022 29.8986 21.9943 29.3386V32.4903H20.4054V22.7227ZM21.9943 27.7498C22.2547 28.427 22.9189 28.8698 23.7915 28.8698C24.9376 28.8698 25.6929 27.893 25.6929 26.2651C25.6929 24.7934 25.0027 23.8427 23.9608 23.8427C23.1664 23.8427 22.4761 24.2334 21.9943 24.9497V27.7498ZM31.5005 30.1851C29.5209 30.1851 28.3227 28.8177 28.3227 26.4344C28.3227 24.0381 29.7293 22.5404 31.5135 22.5404C32.4381 22.5404 33.1414 22.866 33.6233 23.5171L33.7014 22.7227H35.1991V29.9247H33.7014L33.6363 29.1172C33.1154 29.8335 32.3991 30.1851 31.5005 30.1851ZM29.9116 26.4344C29.9116 27.9581 30.5888 28.8698 31.6958 28.8698C32.6335 28.8698 33.4149 28.1144 33.6102 27.0725V25.132C33.2586 24.3637 32.4902 23.8427 31.7088 23.8427C30.706 23.8427 29.9116 24.8325 29.9116 26.4344ZM40.121 30.1851C37.881 30.1851 36.5005 28.7656 36.5005 26.4214C36.5005 24.0511 37.9461 22.5404 40.1862 22.5404C42.0094 22.5404 43.3248 23.6213 43.5723 25.2883H41.9573C41.788 24.4027 41.0978 23.8427 40.1601 23.8427C38.9489 23.8427 38.1024 24.8455 38.1024 26.3562C38.1024 27.9711 38.8838 28.8828 40.2252 28.8828C41.1759 28.8828 41.9313 28.2056 41.9834 27.2679H43.6243C43.5462 29.026 42.1657 30.1851 40.121 30.1851ZM48.4164 30.1851C46.0591 30.1851 44.6656 28.8177 44.6656 26.4214C44.6656 25.6009 44.8349 24.8976 45.1605 24.3116C45.7856 23.1655 46.9187 22.5404 48.2861 22.5404C48.9373 22.5404 49.5234 22.6706 50.0573 22.9441C51.1122 23.4781 51.7764 24.6241 51.8676 26.1348V26.9032H46.2545C46.3066 28.1535 47.114 28.9088 48.4164 28.9088C49.2889 28.9088 49.888 28.5963 50.1094 28.0753H51.7504C51.3857 29.4167 50.1355 30.1851 48.4164 30.1851ZM46.2675 25.679H50.2527C50.1615 24.533 49.4061 23.8427 48.2601 23.8427C47.1661 23.8427 46.4108 24.533 46.2675 25.679Z" fill="white"/>
</g>
<defs>
<filter id="filter0_d_139_68" x="0" y="0" width="213.4" height="59.35" filterUnits="userSpaceOnUse" color-interpolation-filters="sRGB">
<feFlood flood-opacity="0" result="BackgroundImageFix"/>
<feColorMatrix in="SourceAlpha" type="matrix" values="0 0 0 0 0 0 0 0 0 0 0 0 0 0 0 0 0 0 127 0" result="hardAlpha"/>
<feOffset dx="4" dy="4"/>
<feGaussianBlur stdDeviation="2"/>
<feComposite in2="hardAlpha" operator="out"/>
<feColorMatrix type="matrix" values="0 0 0 0 0 0 0 0 0 0 0 0 0 0 0 0 0 0 0.25 0"/>
<feBlend mode="normal" in2="BackgroundImageFix" result="effect1_dropShadow_139_68"/>
<feBlend mode="normal" in="SourceGraphic" in2="effect1_dropShadow_139_68" result="shape"/>
</filter>
</defs>
</svg>
