<svg width="318" height="339" viewBox="0 0 318 339" fill="none" xmlns="http://www.w3.org/2000/svg">
<rect width="317.58" height="339" fill="white"/>
<path d="M158.545 245.377C117.538 245.377 76.4804 245.377 35.473 245.426C33.1168 245.426 33.2672 244.407 33.2672 242.855C33.2672 168.299 33.2672 93.7443 33.2672 19.2376C33.2171 17.2003 33.7685 16.7638 35.8239 16.7638C83.198 16.8123 130.522 16.8123 177.896 16.8123C210.933 16.8123 243.919 16.8123 276.956 16.8123C282.119 16.8123 283.974 18.607 283.974 23.7003C283.974 96.8002 283.974 169.9 283.974 243C283.974 244.795 283.673 245.426 281.568 245.426C240.56 245.377 199.503 245.377 158.495 245.377H158.545ZM158.646 83.6063C158.646 81.6661 158.646 80.3564 158.646 79.0952C158.646 61.9237 158.646 44.7038 158.696 27.5323C158.696 25.3495 158.094 24.9129 155.989 24.9614C120.045 25.0099 84.1004 25.0099 48.1562 24.9614C42.9426 24.9614 41.0877 26.7562 41.0877 31.8009C41.0877 63.9125 41.0877 96.0241 41.0376 128.136C41.0376 130.707 41.8397 131.095 44.246 131.095C68.7602 130.998 93.2744 131.095 117.789 130.998C120.446 130.998 121.147 131.774 120.797 134.102C120.646 135.121 120.746 136.188 120.797 137.255C121.198 145.744 121.799 154.281 126.261 161.848C131.374 170.531 138.142 178.001 146.013 184.452C149.02 186.926 152.229 189.157 156.29 189.643C158.144 189.885 158.646 190.661 158.646 192.456C158.545 206.474 158.646 220.541 158.545 234.56C158.545 236.888 159.247 237.276 161.453 237.276C197.297 237.228 233.191 237.276 269.035 237.276C274.499 237.276 276.204 235.627 276.204 230.34C276.204 198.131 276.204 165.971 276.254 133.763C276.254 131.531 275.552 131.192 273.446 131.192C249.083 131.24 224.769 131.192 200.405 131.192C196.595 131.192 196.645 131.192 196.595 127.554C196.445 115.96 197.397 104.319 194.239 92.9197C192.284 85.9832 189.627 79.4347 184.012 74.4385C180.302 71.1401 176.843 71.043 172.783 73.9049C168.321 77.0579 163.759 80.1623 158.746 83.6063H158.646Z" fill="#010101"/>
<path d="M282.219 307.611C282.219 311.88 282.219 316.149 282.219 320.417C282.219 321.775 282.068 322.503 280.364 322.358C277.807 322.163 274.449 323.134 272.894 321.921C271.29 320.611 272.443 317.264 272.393 314.79C272.343 308.679 272.343 302.518 272.393 296.406C272.393 294.854 271.992 293.544 270.789 292.526C269.887 291.75 269.034 290.974 267.681 291.604C266.327 292.235 265.475 293.011 265.475 294.709C265.575 303.197 265.475 311.637 265.575 320.126C265.575 321.921 265.124 322.552 263.219 322.406C261.414 322.26 259.56 322.26 257.705 322.406C255.85 322.552 255.549 321.824 255.549 320.223C255.599 312.074 255.549 303.925 255.549 295.776C255.549 293.156 254.847 290.828 252.992 288.936C252.04 287.966 252.391 287.481 253.343 286.899C254.947 285.88 256.652 284.959 258.056 283.697C259.91 282.048 261.214 282.63 262.267 284.328C263.369 286.123 264.272 286.22 266.026 284.813C270.338 281.272 271.792 281.369 276.704 285.638C278.509 287.238 279.512 287.384 281.417 285.735C286.781 281.078 288.285 281.224 293.699 285.832C297.208 288.839 299.163 292.332 298.913 297.037C298.662 301.451 298.913 305.914 298.913 310.328C298.913 312.656 299.614 314.839 301.319 316.537C302.372 317.555 302.021 318.04 300.968 318.719C299.314 319.787 297.609 320.854 296.055 322.066C294.651 323.182 293.649 323.037 292.496 321.727C289.889 318.768 288.886 315.275 288.836 311.443C288.836 306.544 288.836 301.597 288.836 296.697C288.836 295.097 288.535 293.69 287.232 292.526C286.33 291.701 285.427 291.022 284.124 291.701C282.921 292.332 281.968 292.962 282.018 294.612C282.169 298.977 282.018 303.343 282.068 307.66L282.219 307.611Z" fill="#080808"/>
<path d="M25.4472 288.597C25.4472 293.496 25.4472 298.444 25.4472 303.343C25.4472 306.69 27.1517 309.358 29.2071 311.831C30.1094 312.899 30.9617 312.85 31.864 311.831C33.9194 309.406 35.4234 306.787 35.5737 303.585C35.8745 297.764 35.8244 291.992 35.5737 286.171C35.4234 283.309 34.4207 280.787 32.616 278.604C31.3126 277.003 31.7638 276.179 33.3178 275.257C35.0724 274.19 36.8772 273.123 38.3811 271.716C40.236 270.018 41.2887 270.94 42.2913 272.395C44.3467 275.306 45.6501 278.653 45.8005 282.097C46.1515 290.052 46.8533 298.104 45.3995 306.011C44.0459 313.481 38.5315 318.331 32.5157 322.551C30.9115 323.667 29.1068 323.134 27.653 322.018C19.9829 316.197 14.5186 309.358 14.9196 299.22C15.2706 290.682 15.0199 282.097 14.9196 273.559C14.9196 271.862 15.421 271.28 17.1756 271.377C19.1808 271.522 21.1861 271.522 23.1913 271.377C25.0462 271.231 25.3971 271.959 25.3971 273.608C25.2968 278.604 25.3971 283.6 25.3971 288.597C25.3971 288.597 25.4472 288.597 25.4974 288.597H25.4472Z" fill="#080808"/>
<path d="M118.842 285.589C118.942 281.127 119.343 277.052 116.034 273.851C115.182 272.977 115.683 272.686 116.335 272.25C117.989 271.134 119.694 270.116 121.198 268.854C122.852 267.448 124.055 267.545 125.409 269.291C127.063 271.474 128.367 273.802 128.517 276.567C128.667 279.38 128.768 282.194 128.768 285.007C128.768 296.6 128.768 308.242 128.768 319.835C128.768 321.533 128.317 322.212 126.512 322.018C125.609 321.921 124.657 321.921 123.755 322.018C121.699 322.357 120.596 321.581 120.496 319.544C120.396 317.992 119.844 318.04 118.691 318.962C112.074 324.249 111.523 324.104 105.306 318.38C101.998 315.324 100.444 311.831 100.544 307.417C100.644 303.052 100.293 298.686 100.794 294.369C101.496 288.306 106.259 285.298 110.871 282.242C111.823 281.612 113.127 281.951 114.179 282.63C115.583 283.503 116.937 284.425 118.691 285.541L118.842 285.589ZM118.741 302.615C118.741 300.19 118.842 297.764 118.741 295.388C118.641 293.544 115.834 291.119 113.979 291.022C112.425 290.973 110.62 293.156 110.42 295.388C109.968 300.19 109.968 305.04 110.42 309.843C110.771 313.481 113.428 314.596 116.536 312.656C117.989 311.734 118.741 310.57 118.741 308.873C118.741 306.787 118.741 304.701 118.741 302.615Z" fill="#080808"/>
<path d="M237.703 287.093C238.956 283.164 238.956 283.261 243.368 283.115C245.624 283.018 246.175 283.649 246.125 285.783C245.975 294.175 246.125 302.567 246.025 310.958C246.025 313.19 246.526 315.13 248.331 316.537C249.334 317.313 249.284 317.846 248.331 318.574C247.128 319.447 245.925 320.369 244.922 321.436C243.218 323.328 241.964 322.746 240.661 321.048C239.759 319.884 239.157 317.895 237.854 317.895C236.701 317.895 235.598 319.593 234.445 320.466C233.592 321.096 232.74 321.727 231.838 322.309C230.133 323.425 228.429 323.376 226.775 322.163C221.009 317.943 216.849 312.947 217.55 305.332C217.851 301.791 217.3 298.25 218.002 294.709C219.205 288.888 223.616 285.589 228.329 282.582C229.682 281.709 231.136 282.582 232.289 283.358C234.144 284.522 235.898 285.88 237.703 287.141V287.093ZM236.049 302.955C236.049 302.955 236.249 302.955 236.35 302.955C236.199 300.481 236.199 297.958 235.898 295.485C235.698 293.593 233.091 291.313 231.286 291.41C229.131 291.556 228.078 293.205 227.727 294.951C226.674 300.044 226.674 305.235 227.677 310.328C228.479 314.305 231.788 315.081 234.846 312.317C235.798 311.443 235.999 310.328 236.049 309.261C236.149 307.175 236.049 305.089 236.049 303.003V302.955Z" fill="#080808"/>
<path d="M202.561 305.235C200.155 305.235 197.748 305.283 195.292 305.235C193.938 305.235 193.487 305.72 193.637 306.932C193.888 309.164 194.039 311.443 195.542 313.335C197.046 315.178 198.651 315.275 200.355 313.578C200.806 313.141 201.257 312.608 201.608 312.074C203.012 310.134 204.683 309.843 206.622 311.201C207.073 311.54 207.574 311.831 208.025 312.171C210.231 313.691 210.431 315.405 208.627 317.313C208.125 317.846 207.574 318.38 207.023 318.816C200.355 324.443 197.147 324.298 190.178 319.059C185.566 315.567 183.361 311.395 183.711 305.768C183.962 301.839 183.511 297.861 184.213 293.932C184.463 292.623 184.915 291.459 185.817 290.488C188.424 287.627 191.432 285.201 194.791 283.212C196.746 282 198.701 282.048 200.656 283.212C204.015 285.201 206.972 287.675 209.629 290.488C211.033 292.041 211.434 293.932 211.534 295.873C211.685 298.298 211.585 300.723 211.785 303.1C211.935 304.895 211.133 305.283 209.479 305.235C207.173 305.138 204.817 305.235 202.461 305.235H202.561ZM197.899 298.444C198.751 298.444 199.553 298.395 200.405 298.444C202.009 298.589 202.511 297.91 202.11 296.455C201.859 295.533 201.859 294.515 201.458 293.641C200.706 292.138 199.503 290.828 197.748 290.731C195.994 290.634 195.342 292.283 194.74 293.544C192.735 297.716 193.186 298.444 197.899 298.444Z" fill="#080808"/>
<path d="M79.1868 302.761C79.1868 303.488 79.0866 304.216 79.1868 304.943C80.3399 313.529 74.9257 318.283 68.2582 322.212C66.253 323.425 64.1976 323.376 62.1422 322.115C59.2346 320.369 56.6779 318.234 54.1713 315.955C51.9154 313.966 51.6146 311.249 51.4642 308.63C51.1133 303.634 50.9629 298.638 51.8653 293.69C52.1159 292.235 52.6674 290.925 53.7703 289.809C56.327 287.238 59.1844 285.007 62.2926 283.164C64.2477 282 66.1527 281.951 68.1579 283.115C71.3162 284.959 74.1236 287.19 76.6803 289.761C78.5853 291.653 78.8359 294.078 79.0365 296.455C79.1868 298.541 79.0365 300.626 79.0365 302.712C79.0365 302.712 79.1367 302.712 79.1868 302.712V302.761ZM69.9627 302.761C69.8123 300.578 69.6619 298.444 69.4112 296.261C69.1104 293.593 66.7543 290.537 65.1501 290.634C63.4957 290.731 61.1897 293.932 60.9892 296.406C60.6382 300.675 60.6884 304.895 60.9892 309.164C61.1396 311.249 62.2424 312.753 63.7464 314.063C64.6989 314.887 65.6514 314.887 66.654 314.063C68.1078 312.802 69.2608 311.492 69.4112 309.406C69.5616 307.175 69.8624 304.943 69.9125 302.664L69.9627 302.761Z" fill="#080808"/>
<path d="M160.351 301.257C160.351 294.951 160.25 288.694 160.351 282.388C160.351 280.447 159.749 279.817 157.794 279.962C155.989 280.108 154.134 279.962 152.28 280.011C150.826 280.108 150.274 279.526 150.475 278.168C150.475 278.071 150.475 278.022 150.475 277.925C150.441 273.559 152.664 271.377 157.142 271.377C164.06 271.377 170.979 271.425 177.897 271.377C179.651 271.377 180.604 271.619 180.353 273.559C180.102 275.597 181.255 278.216 179.852 279.574C178.548 280.836 175.891 279.914 173.786 279.962C170.577 280.059 170.577 279.962 170.577 283.115C170.577 295.436 170.577 307.805 170.577 320.126C170.577 321.921 170.126 322.503 168.271 322.357C166.216 322.212 164.111 322.212 162.005 322.357C160.551 322.455 160.2 321.921 160.2 320.563C160.25 314.111 160.2 307.66 160.2 301.208L160.351 301.257Z" fill="#010101"/>
<path d="M84.4517 298.638C84.4517 294.126 84.5018 289.615 84.4517 285.104C84.4517 283.455 85.0031 283.018 86.6073 283.115C88.5123 283.212 90.4674 283.212 92.3724 283.115C94.0769 283.018 94.4779 283.649 94.4779 285.201C94.4278 292.526 94.4779 299.85 94.4779 307.223C94.4779 310.716 94.5782 314.208 97.4357 316.876C98.1375 317.555 97.7866 317.992 97.1349 318.428C95.0795 319.787 93.0241 321.145 91.0189 322.6C89.8157 323.473 89.164 322.6 88.5123 321.921C85.7551 319.059 84.7023 315.567 84.6021 311.734C84.5519 307.369 84.6021 303.052 84.6021 298.686L84.4517 298.638Z" fill="#080808"/>
<path d="M95.9833 273.171C96.0335 273.851 95.6825 274.239 95.3818 274.578C91.5216 279.574 88.1127 279.623 83.9518 274.869C83.0996 273.899 82.8991 273.074 83.9017 272.153C84.3027 271.765 84.7038 271.328 85.155 270.94C89.3159 267.205 92.6747 267.69 95.6324 272.395C95.7828 272.686 95.9332 272.977 95.9833 273.123V273.171Z" fill="#080808"/>
<path d="M148.42 113.244C148.42 123.091 148.42 132.938 148.42 142.736C148.42 149.915 151.528 155.833 156.241 161.072C158.095 163.158 159.148 163.158 161.103 161.023C165.816 155.736 168.723 149.77 168.924 142.639C169.174 132.259 169.124 121.83 168.924 111.449C168.773 104.173 166.016 97.9644 161.454 92.3861C160.301 90.9794 160.351 90.3003 161.956 89.2332C166.818 85.9832 171.631 82.6362 176.343 79.2408C177.747 78.2221 178.699 78.2706 179.903 79.4833C184.515 84.14 186.67 89.9123 188.174 96.0242C189.377 100.826 189.728 105.726 189.778 110.673C189.879 121.49 190.129 132.307 189.478 143.076C189.026 150.546 186.971 157.482 182.108 163.546C176.945 169.997 171.631 176.303 164.763 181.154C160.201 184.355 157.193 184.501 152.731 181.202C144.059 174.848 136.94 167.087 131.676 157.871C128.017 151.565 127.716 144.434 127.666 137.401C127.515 118.919 127.666 100.438 127.565 82.0056C127.565 80.4049 127.866 79.7258 129.721 79.7743C135.236 79.8713 140.7 79.8713 146.214 79.7743C147.869 79.7743 148.32 80.2594 148.32 81.8116C148.27 92.2891 148.32 102.767 148.32 113.293C148.37 113.293 148.47 113.293 148.52 113.293L148.42 113.244Z" fill="#010101"/>
<path d="M158.546 153.117C155.989 149.818 155.187 146.714 155.036 143.464C154.936 139.923 154.986 136.382 154.836 132.841C154.836 131.531 155.187 130.804 156.641 131.095C158.496 131.434 158.596 130.464 158.596 129.057C158.596 120.666 158.596 112.274 158.596 103.931C158.596 103.009 158.596 102.039 158.596 100.535C160.35 102.621 161.253 104.513 161.554 106.647C162.656 114.36 162.155 122.072 162.356 129.833C162.356 131.386 161.403 131.337 160.401 131.192C158.796 130.998 158.445 131.628 158.496 133.083C158.596 138.807 158.496 144.531 158.496 150.255C158.496 151.031 158.496 151.807 158.496 153.165L158.546 153.117Z" fill="#080808"/>
</svg>
