<svg width="58" height="59" viewBox="0 0 58 59" fill="none" xmlns="http://www.w3.org/2000/svg">
<g clip-path="url(#clip0_149_353)">
<rect x="1.39209" y="1.72699" width="54.6475" height="55.4789" fill="#D9D9D9"/>
<path d="M28.7335 58.6157C19.3283 58.6157 9.91172 58.6157 0.506603 58.6282C-0.033789 58.6282 0.000704296 58.367 0.000704296 57.969C0.000704296 38.8533 0.000704296 19.7376 0.000704296 0.634289C-0.0107934 0.111933 0.115681 0 0.587087 0C11.4524 0.012437 22.3062 0.012437 33.1716 0.012437C40.7485 0.012437 48.314 0.012437 55.891 0.012437C57.0753 0.012437 57.5007 0.472607 57.5007 1.7785C57.5007 20.5211 57.5007 39.2637 57.5007 58.0063C57.5007 58.4665 57.4317 58.6282 56.9488 58.6282C47.5437 58.6157 38.1271 58.6157 28.722 58.6157H28.7335ZM28.7564 17.1382C28.7564 16.6407 28.7564 16.3049 28.7564 15.9816C28.7564 11.5789 28.7564 7.16373 28.7679 2.76102C28.7679 2.20135 28.63 2.08942 28.1471 2.10186C19.9032 2.1143 11.6594 2.1143 3.41552 2.10186C2.21976 2.10186 1.79434 2.56203 1.79434 3.85548C1.79434 12.0888 1.79435 20.3221 1.78285 28.5554C1.78285 29.2146 1.96681 29.3141 2.5187 29.3141C8.14107 29.2892 13.7635 29.3141 19.3858 29.2892C19.9952 29.2892 20.1562 29.4882 20.0757 30.0852C20.0412 30.3464 20.0642 30.62 20.0757 30.8936C20.1677 33.0701 20.3056 35.259 21.3289 37.1992C22.5017 39.4254 24.0539 41.3407 25.859 42.9948C26.5489 43.6291 27.2847 44.2012 28.2161 44.3256C28.6415 44.3878 28.7564 44.5868 28.7564 45.0469C28.7335 48.6412 28.7564 52.248 28.7335 55.8423C28.7335 56.4392 28.8944 56.5387 29.4003 56.5387C37.6212 56.5263 45.8535 56.5387 54.0744 56.5387C55.3276 56.5387 55.7186 56.1159 55.7186 54.7602C55.7186 46.5021 55.7186 38.2563 55.7301 29.9981C55.7301 29.426 55.5691 29.339 55.0862 29.339C49.4983 29.3514 43.9219 29.339 38.334 29.339C37.4602 29.339 37.4717 29.339 37.4602 28.4062C37.4257 25.4337 37.6442 22.4488 36.9198 19.5261C36.4714 17.7476 35.862 16.0686 34.5743 14.7876C33.7235 13.9419 32.9301 13.917 31.9988 14.6508C30.9755 15.4592 29.9292 16.2552 28.7794 17.1382H28.7564Z" fill="#010101"/>
<path d="M26.411 24.7373C26.411 27.262 26.411 29.7867 26.411 32.299C26.411 34.1396 27.1238 35.657 28.2046 37.0002C28.63 37.535 28.8715 37.535 29.3199 36.9877C30.4007 35.6321 31.0675 34.1023 31.1135 32.2741C31.171 29.6126 31.1595 26.9386 31.1135 24.2771C31.079 22.4115 30.4467 20.8196 29.4004 19.3893C29.1359 19.0287 29.1474 18.8545 29.5154 18.5809C30.6306 17.7476 31.7344 16.8895 32.8152 16.0189C33.1371 15.7577 33.3556 15.7702 33.6315 16.0811C34.6893 17.275 35.1837 18.755 35.5286 20.3221C35.8046 21.5534 35.8851 22.8095 35.8966 24.0781C35.9196 26.8515 35.9771 29.625 35.8276 32.386C35.7241 34.3013 35.2527 36.0798 34.1374 37.6345C32.9532 39.2886 31.7344 40.9054 30.1592 42.1491C29.1129 42.9699 28.4231 43.0073 27.3998 42.1615C25.4107 40.5323 23.778 38.5424 22.5707 36.1793C21.7314 34.5625 21.6624 32.7343 21.6509 30.9309C21.6164 26.1924 21.6509 21.4539 21.6279 16.7278C21.6279 16.3174 21.6969 16.1433 22.1223 16.1557C23.3871 16.1806 24.6403 16.1806 25.9051 16.1557C26.2845 16.1557 26.388 16.2801 26.388 16.6781C26.3765 19.3645 26.388 22.0509 26.388 24.7497C26.3995 24.7497 26.4225 24.7497 26.434 24.7497L26.411 24.7373Z" fill="#010101"/>
<path d="M28.7336 34.9605C28.1473 34.1148 27.9633 33.3188 27.9288 32.4855C27.9058 31.5776 27.9173 30.6697 27.8828 29.7618C27.8828 29.426 27.9633 29.2395 28.2967 29.3141C28.7221 29.4011 28.7451 29.1524 28.7451 28.7917C28.7451 26.6401 28.7451 24.4885 28.7451 22.3494C28.7451 22.113 28.7451 21.8643 28.7451 21.4788C29.1476 22.0136 29.3545 22.4986 29.4235 23.0458C29.6765 25.0233 29.5615 27.0008 29.6075 28.9907C29.6075 29.3887 29.389 29.3763 29.1591 29.339C28.7911 29.2892 28.7106 29.4509 28.7221 29.824C28.7451 31.2916 28.7221 32.7591 28.7221 34.2267C28.7221 34.4257 28.7221 34.6247 28.7221 34.9729L28.7336 34.9605Z" fill="#080808"/>
</g>
<defs>
<clipPath id="clip0_149_353">
<rect width="57.5007" height="58.6282" fill="white"/>
</clipPath>
</defs>
</svg>
