<svg width="592" height="123" viewBox="0 0 592 123" fill="none" xmlns="http://www.w3.org/2000/svg">
<g opacity="0.8" clip-path="url(#clip0_155_65)">
<path d="M463.119 10.5186L456.689 12.1157L458.289 18.556L464.719 16.9589L463.119 10.5186Z" fill="white" stroke="black" stroke-width="0.27604" stroke-miterlimit="10"/>
<path d="M450.063 22.6484L448.393 28.4928L454.232 30.1616L455.902 24.3172L450.063 22.6484Z" fill="white" stroke="black" stroke-width="0.27604" stroke-miterlimit="10"/>
<path d="M380.858 118.327L377.325 113.905L377.309 84.0043C377.309 76.0433 372.091 70.5612 364.583 70.5667C362.022 70.5667 355.75 73.846 348.336 79.157C346.657 73.9399 342.147 70.5777 336.317 70.5832C333.843 70.5832 327.925 73.6804 320.776 78.6381V70.5888L298.074 79.3558L302.844 82.8946L302.861 113.944L299.327 118.366L324.679 118.355L320.792 113.932L320.776 80.2281C322.896 79.2509 324.927 78.6326 326.429 78.6326C329.167 78.6326 331.111 81.1942 331.111 84.733L331.127 113.927L327.241 118.349L352.592 118.338L349.059 113.916L349.042 84.0153C349.042 82.7787 348.954 81.5365 348.689 80.3882C350.809 79.3282 353.017 78.616 354.695 78.616C357.434 78.616 359.377 81.1776 359.377 84.7165L359.394 113.91L355.507 118.333L380.858 118.322V118.327Z" fill="white" stroke="black" stroke-width="0.27604" stroke-miterlimit="10"/>
<path d="M490.61 6.6027L484.796 8.35693L486.552 14.1762L492.366 12.422L490.61 6.6027Z" fill="white" stroke="black" stroke-width="0.27604" stroke-miterlimit="10"/>
<path d="M475.528 25.909C475.528 25.909 485.466 28.6694 483.263 38.6234C481.375 47.1586 475.545 56.8696 475.545 56.8696L475.578 122.661L499.312 117.676L481.618 62.3959C481.618 62.3959 498.18 67.9167 503.701 69.0209C509.537 70.1858 512.534 70.125 512.534 70.125C512.534 70.125 515.841 65.1453 515.841 61.2752C515.841 55.0919 513.075 51.3268 513.075 51.3268C513.075 51.3268 512.087 50.2171 501.482 50.7802C490.992 51.3378 479.956 55.7655 479.956 55.7655C479.956 55.7655 489.336 50.2336 492.091 35.3054C494.895 20.0846 475.523 18.1744 475.523 18.1744V25.9146L475.528 25.909Z" fill="white" stroke="black" stroke-width="0.27604" stroke-miterlimit="10"/>
<path d="M468.423 0.137939H464.559V4.00801H468.423V0.137939Z" fill="white" stroke="black" stroke-width="0.27604" stroke-miterlimit="10"/>
<path d="M121.254 72.2782C128.409 72.2782 122.32 89.3485 133.45 89.3429C136.983 89.3429 139.633 86.4224 139.627 82.707C139.627 75.9826 131.76 70.6827 121.249 70.6882C107.38 70.6937 96.9626 81.2274 96.9736 96.4427C96.9792 110.51 106.26 119.525 119.686 119.52C131.964 119.514 140.615 110.046 141.847 95.2723C139.644 103.145 135.581 107.131 128.779 107.131C120.211 107.131 114.646 99.5288 114.64 88.2057C114.64 79.3614 117.191 72.2837 121.254 72.2782Z" fill="white" stroke="black" stroke-width="0.27604" stroke-miterlimit="10"/>
<path d="M0.431641 118.515L26.8155 118.504L25.1537 110.543L33.4239 89.5306L52.5203 89.5195L61.475 110.968L50.7702 118.493L94.8206 118.471L87.754 110.957L55.4794 34.3392L29.206 39.1092L35.6156 49.6097L11.2469 110.769L0.431641 118.515ZM42.7154 65.0514L51.5321 84.7661L34.4176 84.7772L42.7154 65.0514Z" fill="white" stroke="black" stroke-width="0.27604" stroke-miterlimit="10"/>
<path d="M197.149 118.415L193.616 113.993L193.599 84.0926C193.599 76.1317 188.382 70.6495 180.874 70.655C178.312 70.655 171.952 74.0227 164.361 79.4221L164.344 43.3326L141.648 52.0997L146.418 55.6385L146.446 114.021L142.918 118.443L167.911 118.432L164.378 114.01L164.361 80.9237C166.746 79.5932 169.219 78.7099 170.986 78.7099C173.724 78.7099 175.668 81.2715 175.668 84.8987L175.684 114.004L171.797 118.426L197.149 118.415Z" fill="white" stroke="black" stroke-width="0.27604" stroke-miterlimit="10"/>
<path d="M296.584 94.7478C296.578 81.4758 285.089 70.6053 270.426 70.6109C255.94 70.6164 244.109 81.5034 244.12 94.7754C244.125 108.312 255.967 119.448 270.454 119.442C285.117 119.437 296.595 108.285 296.584 94.7478ZM262.67 94.8526C262.664 78.9307 265.22 72.118 270.432 72.1125C275.732 72.1125 278.028 79.6263 278.039 94.8416C278.045 111.029 275.577 117.93 270.454 117.935C264.977 117.935 262.675 110.333 262.67 94.8526Z" fill="white" stroke="black" stroke-width="0.27604" stroke-miterlimit="10"/>
<path d="M225.917 78.7706C228.921 78.7706 229.28 88.1449 236.788 88.1449C241.028 88.1449 243.943 84.6889 243.937 79.6484C243.937 74.3429 240.31 70.6274 235.187 70.6274C230.152 70.6274 225.299 74.5251 221.589 80.2778V70.6329L198.888 79.4L203.658 82.4916L203.674 113.982L200.141 118.404L225.846 118.393L221.606 113.971L221.589 82.7455C222.826 80.5317 224.504 78.7651 225.917 78.7651V78.7706Z" fill="white" stroke="black" stroke-width="0.27604" stroke-miterlimit="10"/>
<path d="M437.452 51.3543C437.452 51.3543 434.692 55.125 434.697 61.3083C434.697 65.1784 438.015 70.1526 438.015 70.1526C438.015 70.1526 441.013 70.2133 446.849 69.0429C452.369 67.9333 468.926 62.3959 468.926 62.3959L451.287 117.692L475.027 122.655L474.994 56.8641C474.994 56.8641 469.153 47.1585 467.259 38.6234C465.045 28.6749 474.982 25.9035 474.982 25.9035V18.1633C474.982 18.1633 455.604 20.0901 458.426 35.3109C461.192 50.2391 470.582 55.7599 470.582 55.7599C470.582 55.7599 459.541 51.3433 449.051 50.7967C438.446 50.2446 437.458 51.3543 437.458 51.3543H437.452Z" fill="white" stroke="black" stroke-width="0.27604" stroke-miterlimit="10"/>
<path d="M523.323 82.3426L523.339 113.833L519.806 118.261L544.804 118.244L541.265 113.828L541.243 70.4784L518.553 79.2509L523.323 82.3426Z" fill="white" stroke="black" stroke-width="0.27604" stroke-miterlimit="10"/>
<path d="M531.862 59.884L545.256 67.6186L552.974 54.2086L539.586 46.474L531.862 59.884Z" fill="white" stroke="black" stroke-width="0.27604" stroke-miterlimit="10"/>
<path d="M497.61 21.9691L495.768 30.0539L503.842 31.8943L505.684 23.8094L497.61 21.9691Z" fill="white" stroke="black" stroke-width="0.27604" stroke-miterlimit="10"/>
<path d="M571.277 72.0573C578.432 72.0573 572.348 89.1276 583.472 89.1221C587.005 89.1221 589.655 86.2016 589.65 82.4861C589.65 75.7618 581.783 70.4618 571.271 70.4673C557.403 70.4728 546.985 81.0065 546.996 96.2218C547.002 110.289 556.282 119.304 569.709 119.299C581.987 119.293 590.638 109.825 591.869 95.0514C589.666 102.924 585.603 106.91 578.801 106.91C570.233 106.91 564.668 99.3079 564.663 87.9848C564.663 79.1405 567.219 72.0628 571.277 72.0573Z" fill="white" stroke="black" stroke-width="0.27604" stroke-miterlimit="10"/>
<path d="M434.391 29.1826L431.712 29.8481L432.379 32.5324L435.058 31.8669L434.391 29.1826Z" fill="white" stroke="black" stroke-width="0.27604" stroke-miterlimit="10"/>
<path d="M516.269 28.5886L515.63 30.7082L517.744 31.3457L518.383 29.2261L516.269 28.5886Z" fill="white" stroke="black" stroke-width="0.27604" stroke-miterlimit="10"/>
<path d="M505.137 14.826L504.646 16.9845L506.799 17.4753L507.291 15.3168L505.137 14.826Z" fill="white" stroke="black" stroke-width="0.27604" stroke-miterlimit="10"/>
<path d="M430.076 84.8655C430.076 76.3745 423.358 70.5391 413.818 70.5446C407.016 70.5446 384.32 77.7216 384.326 87.9848C384.326 91.9653 386.981 94.7974 390.862 94.7919C400.667 94.7919 396.333 79.5766 400.833 75.7673C401.893 74.8839 403.218 74.3484 404.808 74.3484C409.048 74.3484 412.228 78.4117 412.233 85.2244V89.5582C400.844 95.2225 384.42 101.246 384.425 109.831C384.425 115.313 389.024 119.382 395.207 119.382C400.772 119.382 407.303 115.925 412.25 110.703V119.37L434.863 111.487L430.093 108.218L430.082 84.8655H430.076ZM407.657 111.062C404.212 111.062 401.827 108.147 401.821 103.99C401.821 97.9719 405.614 94.4331 412.239 91.2476L412.25 108.583C411.101 110.002 409.6 111.062 407.657 111.062Z" fill="white" stroke="black" stroke-width="0.27604" stroke-miterlimit="10"/>
<path d="M482.353 35.8253L475.229 28.7009L468.104 35.8253L475.229 42.9497L482.353 35.8253Z" fill="#38DAFF"/>
</g>
<g opacity="0.8" clip-path="url(#clip1_155_65)">
<path d="M463.119 10.5186L456.689 12.1157L458.289 18.556L464.719 16.9589L463.119 10.5186Z" fill="white" stroke="black" stroke-width="0.27604" stroke-miterlimit="10"/>
<path d="M450.063 22.6484L448.393 28.4928L454.232 30.1616L455.902 24.3172L450.063 22.6484Z" fill="white" stroke="black" stroke-width="0.27604" stroke-miterlimit="10"/>
<path d="M380.858 118.327L377.325 113.905L377.309 84.0043C377.309 76.0433 372.091 70.5612 364.583 70.5667C362.022 70.5667 355.75 73.846 348.336 79.157C346.657 73.9399 342.147 70.5777 336.317 70.5832C333.843 70.5832 327.925 73.6804 320.776 78.6381V70.5888L298.074 79.3558L302.844 82.8946L302.861 113.944L299.327 118.366L324.679 118.355L320.792 113.932L320.776 80.2281C322.896 79.2509 324.927 78.6326 326.429 78.6326C329.167 78.6326 331.111 81.1942 331.111 84.733L331.127 113.927L327.241 118.349L352.592 118.338L349.059 113.916L349.042 84.0153C349.042 82.7787 348.954 81.5365 348.689 80.3882C350.809 79.3282 353.017 78.616 354.695 78.616C357.434 78.616 359.377 81.1776 359.377 84.7165L359.394 113.91L355.507 118.333L380.858 118.322V118.327Z" fill="white" stroke="black" stroke-width="0.27604" stroke-miterlimit="10"/>
<path d="M490.61 6.6027L484.796 8.35693L486.552 14.1762L492.366 12.422L490.61 6.6027Z" fill="white" stroke="black" stroke-width="0.27604" stroke-miterlimit="10"/>
<path d="M475.528 25.909C475.528 25.909 485.466 28.6694 483.263 38.6234C481.375 47.1586 475.545 56.8696 475.545 56.8696L475.578 122.661L499.312 117.676L481.618 62.3959C481.618 62.3959 498.18 67.9167 503.701 69.0209C509.537 70.1858 512.534 70.125 512.534 70.125C512.534 70.125 515.841 65.1453 515.841 61.2752C515.841 55.0919 513.075 51.3268 513.075 51.3268C513.075 51.3268 512.087 50.2171 501.482 50.7802C490.992 51.3378 479.956 55.7655 479.956 55.7655C479.956 55.7655 489.336 50.2336 492.091 35.3054C494.895 20.0846 475.523 18.1744 475.523 18.1744V25.9146L475.528 25.909Z" fill="white" stroke="black" stroke-width="0.27604" stroke-miterlimit="10"/>
<path d="M468.423 0.137939H464.559V4.00801H468.423V0.137939Z" fill="white" stroke="black" stroke-width="0.27604" stroke-miterlimit="10"/>
<path d="M121.254 72.2782C128.409 72.2782 122.32 89.3485 133.45 89.3429C136.983 89.3429 139.633 86.4224 139.627 82.707C139.627 75.9826 131.76 70.6827 121.249 70.6882C107.38 70.6937 96.9626 81.2274 96.9736 96.4427C96.9792 110.51 106.26 119.525 119.686 119.52C131.964 119.514 140.615 110.046 141.847 95.2723C139.644 103.145 135.581 107.131 128.779 107.131C120.211 107.131 114.646 99.5288 114.64 88.2057C114.64 79.3614 117.191 72.2837 121.254 72.2782Z" fill="white" stroke="black" stroke-width="0.27604" stroke-miterlimit="10"/>
<path d="M0.431641 118.515L26.8155 118.504L25.1537 110.543L33.4239 89.5306L52.5203 89.5195L61.475 110.968L50.7702 118.493L94.8206 118.471L87.754 110.957L55.4794 34.3392L29.206 39.1092L35.6156 49.6097L11.2469 110.769L0.431641 118.515ZM42.7154 65.0514L51.5321 84.7661L34.4176 84.7772L42.7154 65.0514Z" fill="white" stroke="black" stroke-width="0.27604" stroke-miterlimit="10"/>
<path d="M197.149 118.415L193.616 113.993L193.599 84.0926C193.599 76.1317 188.382 70.6495 180.874 70.655C178.312 70.655 171.952 74.0227 164.361 79.4221L164.344 43.3326L141.648 52.0997L146.418 55.6385L146.446 114.021L142.918 118.443L167.911 118.432L164.378 114.01L164.361 80.9237C166.746 79.5932 169.219 78.7099 170.986 78.7099C173.724 78.7099 175.668 81.2715 175.668 84.8987L175.684 114.004L171.797 118.426L197.149 118.415Z" fill="white" stroke="black" stroke-width="0.27604" stroke-miterlimit="10"/>
<path d="M296.584 94.7478C296.578 81.4758 285.089 70.6053 270.426 70.6109C255.94 70.6164 244.109 81.5034 244.12 94.7754C244.125 108.312 255.967 119.448 270.454 119.442C285.117 119.437 296.595 108.285 296.584 94.7478ZM262.67 94.8526C262.664 78.9307 265.22 72.118 270.432 72.1125C275.732 72.1125 278.028 79.6263 278.039 94.8416C278.045 111.029 275.577 117.93 270.454 117.935C264.977 117.935 262.675 110.333 262.67 94.8526Z" fill="white" stroke="black" stroke-width="0.27604" stroke-miterlimit="10"/>
<path d="M225.917 78.7706C228.921 78.7706 229.28 88.1449 236.788 88.1449C241.028 88.1449 243.943 84.6889 243.937 79.6484C243.937 74.3429 240.31 70.6274 235.187 70.6274C230.152 70.6274 225.299 74.5251 221.589 80.2778V70.6329L198.888 79.4L203.658 82.4916L203.674 113.982L200.141 118.404L225.846 118.393L221.606 113.971L221.589 82.7455C222.826 80.5317 224.504 78.7651 225.917 78.7651V78.7706Z" fill="white" stroke="black" stroke-width="0.27604" stroke-miterlimit="10"/>
<path d="M437.452 51.3543C437.452 51.3543 434.692 55.125 434.697 61.3083C434.697 65.1784 438.015 70.1526 438.015 70.1526C438.015 70.1526 441.013 70.2133 446.849 69.0429C452.369 67.9333 468.926 62.3959 468.926 62.3959L451.287 117.692L475.027 122.655L474.994 56.8641C474.994 56.8641 469.153 47.1585 467.259 38.6234C465.045 28.6749 474.982 25.9035 474.982 25.9035V18.1633C474.982 18.1633 455.604 20.0901 458.426 35.3109C461.192 50.2391 470.582 55.7599 470.582 55.7599C470.582 55.7599 459.541 51.3433 449.051 50.7967C438.446 50.2446 437.458 51.3543 437.458 51.3543H437.452Z" fill="white" stroke="black" stroke-width="0.27604" stroke-miterlimit="10"/>
<path d="M523.323 82.3426L523.339 113.833L519.806 118.261L544.804 118.244L541.265 113.828L541.243 70.4784L518.553 79.2509L523.323 82.3426Z" fill="white" stroke="black" stroke-width="0.27604" stroke-miterlimit="10"/>
<path d="M531.862 59.884L545.256 67.6186L552.974 54.2086L539.586 46.474L531.862 59.884Z" fill="white" stroke="black" stroke-width="0.27604" stroke-miterlimit="10"/>
<path d="M497.61 21.9691L495.768 30.0539L503.842 31.8943L505.684 23.8094L497.61 21.9691Z" fill="white" stroke="black" stroke-width="0.27604" stroke-miterlimit="10"/>
<path d="M571.277 72.0573C578.432 72.0573 572.348 89.1276 583.472 89.1221C587.005 89.1221 589.655 86.2016 589.65 82.4861C589.65 75.7618 581.783 70.4618 571.271 70.4673C557.403 70.4728 546.985 81.0065 546.996 96.2218C547.002 110.289 556.282 119.304 569.709 119.299C581.987 119.293 590.638 109.825 591.869 95.0514C589.666 102.924 585.603 106.91 578.801 106.91C570.233 106.91 564.668 99.3079 564.663 87.9848C564.663 79.1405 567.219 72.0628 571.277 72.0573Z" fill="white" stroke="black" stroke-width="0.27604" stroke-miterlimit="10"/>
<path d="M434.391 29.1826L431.712 29.8481L432.379 32.5324L435.058 31.8669L434.391 29.1826Z" fill="white" stroke="black" stroke-width="0.27604" stroke-miterlimit="10"/>
<path d="M516.269 28.5886L515.63 30.7082L517.744 31.3457L518.383 29.2261L516.269 28.5886Z" fill="white" stroke="black" stroke-width="0.27604" stroke-miterlimit="10"/>
<path d="M505.137 14.826L504.646 16.9845L506.799 17.4753L507.291 15.3168L505.137 14.826Z" fill="white" stroke="black" stroke-width="0.27604" stroke-miterlimit="10"/>
<path d="M430.076 84.8655C430.076 76.3745 423.358 70.5391 413.818 70.5446C407.016 70.5446 384.32 77.7216 384.326 87.9848C384.326 91.9653 386.981 94.7974 390.862 94.7919C400.667 94.7919 396.333 79.5766 400.833 75.7673C401.893 74.8839 403.218 74.3484 404.808 74.3484C409.048 74.3484 412.228 78.4117 412.233 85.2244V89.5582C400.844 95.2225 384.42 101.246 384.425 109.831C384.425 115.313 389.024 119.382 395.207 119.382C400.772 119.382 407.303 115.925 412.25 110.703V119.37L434.863 111.487L430.093 108.218L430.082 84.8655H430.076ZM407.657 111.062C404.212 111.062 401.827 108.147 401.821 103.99C401.821 97.9719 405.614 94.4331 412.239 91.2476L412.25 108.583C411.101 110.002 409.6 111.062 407.657 111.062Z" fill="white" stroke="black" stroke-width="0.27604" stroke-miterlimit="10"/>
<path d="M482.353 35.8253L475.229 28.7009L468.104 35.8253L475.229 42.9497L482.353 35.8253Z" fill="#38DAFF"/>
</g>
<g opacity="0.8" clip-path="url(#clip2_155_65)">
<path d="M463.119 10.5186L456.689 12.1157L458.289 18.556L464.719 16.9589L463.119 10.5186Z" fill="white" stroke="black" stroke-width="0.27604" stroke-miterlimit="10"/>
<path d="M450.063 22.6484L448.393 28.4928L454.232 30.1616L455.902 24.3172L450.063 22.6484Z" fill="white" stroke="black" stroke-width="0.27604" stroke-miterlimit="10"/>
<path d="M380.858 118.327L377.325 113.905L377.309 84.0043C377.309 76.0433 372.091 70.5612 364.583 70.5667C362.022 70.5667 355.75 73.846 348.336 79.157C346.657 73.9399 342.147 70.5777 336.317 70.5832C333.843 70.5832 327.925 73.6804 320.776 78.6381V70.5888L298.074 79.3558L302.844 82.8946L302.861 113.944L299.327 118.366L324.679 118.355L320.792 113.932L320.776 80.2281C322.896 79.2509 324.927 78.6326 326.429 78.6326C329.167 78.6326 331.111 81.1942 331.111 84.733L331.127 113.927L327.241 118.349L352.592 118.338L349.059 113.916L349.042 84.0153C349.042 82.7787 348.954 81.5365 348.689 80.3882C350.809 79.3282 353.017 78.616 354.695 78.616C357.434 78.616 359.377 81.1776 359.377 84.7165L359.394 113.91L355.507 118.333L380.858 118.322V118.327Z" fill="white" stroke="black" stroke-width="0.27604" stroke-miterlimit="10"/>
<path d="M490.61 6.6027L484.796 8.35693L486.552 14.1762L492.366 12.422L490.61 6.6027Z" fill="white" stroke="black" stroke-width="0.27604" stroke-miterlimit="10"/>
<path d="M475.528 25.909C475.528 25.909 485.466 28.6694 483.263 38.6234C481.375 47.1586 475.545 56.8696 475.545 56.8696L475.578 122.661L499.312 117.676L481.618 62.3959C481.618 62.3959 498.18 67.9167 503.701 69.0209C509.537 70.1858 512.534 70.125 512.534 70.125C512.534 70.125 515.841 65.1453 515.841 61.2752C515.841 55.0919 513.075 51.3268 513.075 51.3268C513.075 51.3268 512.087 50.2171 501.482 50.7802C490.992 51.3378 479.956 55.7655 479.956 55.7655C479.956 55.7655 489.336 50.2336 492.091 35.3054C494.895 20.0846 475.523 18.1744 475.523 18.1744V25.9146L475.528 25.909Z" fill="white" stroke="black" stroke-width="0.27604" stroke-miterlimit="10"/>
<path d="M468.423 0.137939H464.559V4.00801H468.423V0.137939Z" fill="white" stroke="black" stroke-width="0.27604" stroke-miterlimit="10"/>
<path d="M121.254 72.2782C128.409 72.2782 122.32 89.3485 133.45 89.3429C136.983 89.3429 139.633 86.4224 139.627 82.707C139.627 75.9826 131.76 70.6827 121.249 70.6882C107.38 70.6937 96.9626 81.2274 96.9736 96.4427C96.9792 110.51 106.26 119.525 119.686 119.52C131.964 119.514 140.615 110.046 141.847 95.2723C139.644 103.145 135.581 107.131 128.779 107.131C120.211 107.131 114.646 99.5288 114.64 88.2057C114.64 79.3614 117.191 72.2837 121.254 72.2782Z" fill="white" stroke="black" stroke-width="0.27604" stroke-miterlimit="10"/>
<path d="M0.431641 118.515L26.8155 118.504L25.1537 110.543L33.4239 89.5306L52.5203 89.5195L61.475 110.968L50.7702 118.493L94.8206 118.471L87.754 110.957L55.4794 34.3392L29.206 39.1092L35.6156 49.6097L11.2469 110.769L0.431641 118.515ZM42.7154 65.0514L51.5321 84.7661L34.4176 84.7772L42.7154 65.0514Z" fill="white" stroke="black" stroke-width="0.27604" stroke-miterlimit="10"/>
<path d="M197.149 118.415L193.616 113.993L193.599 84.0926C193.599 76.1317 188.382 70.6495 180.874 70.655C178.312 70.655 171.952 74.0227 164.361 79.4221L164.344 43.3326L141.648 52.0997L146.418 55.6385L146.446 114.021L142.918 118.443L167.911 118.432L164.378 114.01L164.361 80.9237C166.746 79.5932 169.219 78.7099 170.986 78.7099C173.724 78.7099 175.668 81.2715 175.668 84.8987L175.684 114.004L171.797 118.426L197.149 118.415Z" fill="white" stroke="black" stroke-width="0.27604" stroke-miterlimit="10"/>
<path d="M296.584 94.7478C296.578 81.4758 285.089 70.6053 270.426 70.6109C255.94 70.6164 244.109 81.5034 244.12 94.7754C244.125 108.312 255.967 119.448 270.454 119.442C285.117 119.437 296.595 108.285 296.584 94.7478ZM262.67 94.8526C262.664 78.9307 265.22 72.118 270.432 72.1125C275.732 72.1125 278.028 79.6263 278.039 94.8416C278.045 111.029 275.577 117.93 270.454 117.935C264.977 117.935 262.675 110.333 262.67 94.8526Z" fill="white" stroke="black" stroke-width="0.27604" stroke-miterlimit="10"/>
<path d="M225.917 78.7706C228.921 78.7706 229.28 88.1449 236.788 88.1449C241.028 88.1449 243.943 84.6889 243.937 79.6484C243.937 74.3429 240.31 70.6274 235.187 70.6274C230.152 70.6274 225.299 74.5251 221.589 80.2778V70.6329L198.888 79.4L203.658 82.4916L203.674 113.982L200.141 118.404L225.846 118.393L221.606 113.971L221.589 82.7455C222.826 80.5317 224.504 78.7651 225.917 78.7651V78.7706Z" fill="white" stroke="black" stroke-width="0.27604" stroke-miterlimit="10"/>
<path d="M437.452 51.3543C437.452 51.3543 434.692 55.125 434.697 61.3083C434.697 65.1784 438.015 70.1526 438.015 70.1526C438.015 70.1526 441.013 70.2133 446.849 69.0429C452.369 67.9333 468.926 62.3959 468.926 62.3959L451.287 117.692L475.027 122.655L474.994 56.8641C474.994 56.8641 469.153 47.1585 467.259 38.6234C465.045 28.6749 474.982 25.9035 474.982 25.9035V18.1633C474.982 18.1633 455.604 20.0901 458.426 35.3109C461.192 50.2391 470.582 55.7599 470.582 55.7599C470.582 55.7599 459.541 51.3433 449.051 50.7967C438.446 50.2446 437.458 51.3543 437.458 51.3543H437.452Z" fill="white" stroke="black" stroke-width="0.27604" stroke-miterlimit="10"/>
<path d="M523.323 82.3426L523.339 113.833L519.806 118.261L544.804 118.244L541.265 113.828L541.243 70.4784L518.553 79.2509L523.323 82.3426Z" fill="white" stroke="black" stroke-width="0.27604" stroke-miterlimit="10"/>
<path d="M531.862 59.884L545.256 67.6186L552.974 54.2086L539.586 46.474L531.862 59.884Z" fill="white" stroke="black" stroke-width="0.27604" stroke-miterlimit="10"/>
<path d="M497.61 21.9691L495.768 30.0539L503.842 31.8943L505.684 23.8094L497.61 21.9691Z" fill="white" stroke="black" stroke-width="0.27604" stroke-miterlimit="10"/>
<path d="M571.277 72.0573C578.432 72.0573 572.348 89.1276 583.472 89.1221C587.005 89.1221 589.655 86.2016 589.65 82.4861C589.65 75.7618 581.783 70.4618 571.271 70.4673C557.403 70.4728 546.985 81.0065 546.996 96.2218C547.002 110.289 556.282 119.304 569.709 119.299C581.987 119.293 590.638 109.825 591.869 95.0514C589.666 102.924 585.603 106.91 578.801 106.91C570.233 106.91 564.668 99.3079 564.663 87.9848C564.663 79.1405 567.219 72.0628 571.277 72.0573Z" fill="white" stroke="black" stroke-width="0.27604" stroke-miterlimit="10"/>
<path d="M434.391 29.1826L431.712 29.8481L432.379 32.5324L435.058 31.8669L434.391 29.1826Z" fill="white" stroke="black" stroke-width="0.27604" stroke-miterlimit="10"/>
<path d="M516.269 28.5886L515.63 30.7082L517.744 31.3457L518.383 29.2261L516.269 28.5886Z" fill="white" stroke="black" stroke-width="0.27604" stroke-miterlimit="10"/>
<path d="M505.137 14.826L504.646 16.9845L506.799 17.4753L507.291 15.3168L505.137 14.826Z" fill="white" stroke="black" stroke-width="0.27604" stroke-miterlimit="10"/>
<path d="M430.076 84.8655C430.076 76.3745 423.358 70.5391 413.818 70.5446C407.016 70.5446 384.32 77.7216 384.326 87.9848C384.326 91.9653 386.981 94.7974 390.862 94.7919C400.667 94.7919 396.333 79.5766 400.833 75.7673C401.893 74.8839 403.218 74.3484 404.808 74.3484C409.048 74.3484 412.228 78.4117 412.233 85.2244V89.5582C400.844 95.2225 384.42 101.246 384.425 109.831C384.425 115.313 389.024 119.382 395.207 119.382C400.772 119.382 407.303 115.925 412.25 110.703V119.37L434.863 111.487L430.093 108.218L430.082 84.8655H430.076ZM407.657 111.062C404.212 111.062 401.827 108.147 401.821 103.99C401.821 97.9719 405.614 94.4331 412.239 91.2476L412.25 108.583C411.101 110.002 409.6 111.062 407.657 111.062Z" fill="white" stroke="black" stroke-width="0.27604" stroke-miterlimit="10"/>
<path d="M482.353 35.8253L475.229 28.7009L468.104 35.8253L475.229 42.9497L482.353 35.8253Z" fill="#38DAFF"/>
</g>
<defs>
<clipPath id="clip0_155_65">
<rect width="592" height="122.827" fill="white"/>
</clipPath>
<clipPath id="clip1_155_65">
<rect width="592" height="122.827" fill="white"/>
</clipPath>
<clipPath id="clip2_155_65">
<rect width="592" height="122.827" fill="white"/>
</clipPath>
</defs>
</svg>
