<svg width="52" height="53" viewBox="0 0 52 53" fill="none" xmlns="http://www.w3.org/2000/svg">
<rect x="0.303711" y="0.685547" width="51.3495" height="51.3495" rx="13.4156" fill="#A33E3E"/>
<rect x="5.42188" y="5.80347" width="41.7643" height="41.7643" rx="13.4156" fill="white" fill-opacity="0.5"/>
<path d="M15.4091 31.3664C12.8956 31.3664 11.2546 30.0901 11.3067 28.384H12.9477L12.9346 28.5273C12.9346 29.3738 14.0937 30.0641 15.5393 30.0641C16.8026 30.0641 17.597 29.478 17.597 28.5013C17.597 27.6026 16.9459 27.1208 15.1877 26.5477C14.3672 26.3003 13.69 26.0398 13.13 25.7794C12.0881 25.3105 11.5672 24.6203 11.5672 23.6305C11.5672 21.9505 12.9346 20.8174 15.1486 20.8174C15.904 20.8174 16.5552 20.9216 17.0891 21.143C18.144 21.5598 18.7952 22.3542 18.8864 23.2919H17.2714C17.1021 22.6016 16.2556 22.1198 15.0705 22.1198C13.9375 22.1198 13.156 22.7189 13.156 23.5003C13.156 23.7737 13.2342 23.9821 13.4035 24.1514C13.5728 24.3338 13.7942 24.49 14.0807 24.6072C14.3802 24.7505 14.8491 24.9068 15.4742 25.1021C16.4249 25.4017 17.1412 25.6882 17.6491 25.9617C18.7301 26.5347 19.1989 27.3031 19.1989 28.5013C19.1989 30.3115 17.7924 31.3664 15.4091 31.3664Z" fill="white"/>
</svg>
