<svg width="52" height="52" viewBox="0 0 52 52" fill="none" xmlns="http://www.w3.org/2000/svg">
<rect width="51.3495" height="51.3495" rx="13.4156" fill="#A33E3E"/>
<rect x="5.11816" y="5.11792" width="41.7643" height="41.7643" rx="13.4156" fill="white" fill-opacity="0.5"/>
<path d="M12.7742 30.4204L11.003 20.3793H12.5398L14.0114 28.558H14.0375C14.1156 28.0371 14.2198 27.5162 14.35 26.9952L15.978 20.3793H17.2282L18.8692 26.9952C18.9733 27.3859 19.0775 27.9069 19.1687 28.558H19.1947L20.6664 20.3793H22.2032L20.432 30.4204H18.3482L16.8505 24.3254C16.7333 23.8696 16.6552 23.505 16.6161 23.2315H16.5901C16.551 23.531 16.4859 23.8957 16.3687 24.3254L14.8579 30.4204H12.7742Z" fill="white"/>
</svg>
