<svg width="532" height="194" viewBox="0 0 532 194" fill="none" xmlns="http://www.w3.org/2000/svg">
<rect width="531.704" height="194" rx="20" fill="black" fill-opacity="0.5"/>
<g filter="url(#filter0_d_139_49)">
<rect x="198.396" y="70.6855" width="51.3495" height="51.3495" rx="13.4156" fill="#A33E3E"/>
<rect x="203.515" y="75.8035" width="41.7643" height="41.7643" rx="13.4156" fill="white" fill-opacity="0.5"/>
<path d="M209.269 101.106L213.111 91.0649H214.674L218.516 101.106H216.914L215.937 98.5013H211.848L210.871 101.106H209.269ZM212.33 97.1989H215.455L213.893 93.0054L212.33 97.1989Z" fill="white"/>
<rect x="258.304" y="70.6855" width="51.3495" height="51.3495" rx="13.4156" fill="#A33E3E"/>
<rect x="263.422" y="75.8035" width="41.7643" height="41.7643" rx="13.4156" fill="white" fill-opacity="0.5"/>
<path d="M273.409 101.366C270.896 101.366 269.255 100.09 269.307 98.384H270.948L270.935 98.5273C270.935 99.3738 272.094 100.064 273.539 100.064C274.803 100.064 275.597 99.478 275.597 98.5013C275.597 97.6026 274.946 97.1208 273.188 96.5477C272.367 96.3003 271.69 96.0398 271.13 95.7794C270.088 95.3105 269.567 94.6203 269.567 93.6305C269.567 91.9505 270.935 90.8174 273.149 90.8174C273.904 90.8174 274.555 90.9216 275.089 91.143C276.144 91.5598 276.795 92.3542 276.886 93.2919H275.271C275.102 92.6016 274.256 92.1198 273.07 92.1198C271.937 92.1198 271.156 92.7189 271.156 93.5003C271.156 93.7737 271.234 93.9821 271.403 94.1514C271.573 94.3338 271.794 94.49 272.081 94.6072C272.38 94.7505 272.849 94.9068 273.474 95.1021C274.425 95.4017 275.141 95.6882 275.649 95.9617C276.73 96.5347 277.199 97.3031 277.199 98.5013C277.199 100.312 275.792 101.366 273.409 101.366Z" fill="white"/>
<rect x="318.212" y="70.6855" width="51.3495" height="51.3495" rx="13.4156" fill="#A33E3E"/>
<rect x="323.33" y="75.8035" width="41.7643" height="41.7643" rx="13.4156" fill="white" fill-opacity="0.5"/>
<path d="M332.679 91.0649C336.104 91.0649 337.758 92.7449 337.758 96.0919C337.758 99.4259 336.117 101.106 332.679 101.106H329.736V91.0649H332.679ZM331.325 99.7906H332.744C335.18 99.7906 336.169 98.6966 336.169 96.0919C336.169 93.4742 335.18 92.3802 332.744 92.3802H331.325V99.7906Z" fill="white"/>
<rect x="240" y="10" width="51.3495" height="51.3495" rx="13.4156" fill="#A33E3E"/>
<rect x="245.118" y="15.1179" width="41.7643" height="41.7643" rx="13.4156" fill="white" fill-opacity="0.5"/>
<path d="M252.774 40.4204L251.003 30.3793H252.54L254.011 38.558H254.037C254.116 38.0371 254.22 37.5162 254.35 36.9952L255.978 30.3793H257.228L258.869 36.9952C258.973 37.3859 259.078 37.9069 259.169 38.558H259.195L260.666 30.3793H262.203L260.432 40.4204H258.348L256.851 34.3254C256.733 33.8696 256.655 33.505 256.616 33.2315H256.59C256.551 33.531 256.486 33.8957 256.369 34.3254L254.858 40.4204H252.774Z" fill="white"/>
<rect x="299.385" y="10.7778" width="51.3495" height="51.3495" rx="13.4156" fill="#3EA35A"/>
<rect x="304.503" y="15.8958" width="41.7643" height="41.7643" rx="13.4156" fill="white" fill-opacity="0.5"/>
<path d="M310.909 31.1572H317.707V32.4595H312.498V35.3247H317.512V36.627H312.498V39.8959H317.837V41.1982H310.909V31.1572Z" fill="white"/>
<rect x="359.291" y="10.7778" width="51.3495" height="51.3495" rx="13.4156" fill="#703EA3"/>
<rect x="364.409" y="15.8958" width="41.7643" height="41.7643" rx="13.4156" fill="white" fill-opacity="0.5"/>
<path d="M373.706 31.1572C376.871 31.1572 378.316 32.1209 378.316 34.2958C378.316 35.6633 377.691 36.5879 376.454 37.0437L378.746 41.1982H376.988L374.969 37.3693C374.462 37.4084 374.045 37.4345 373.706 37.4345H372.404V41.1982H370.815V31.1572H373.706ZM372.404 36.1321H374.071C375.894 36.1321 376.728 35.5461 376.728 34.2958C376.728 33.0456 375.894 32.4595 374.071 32.4595H372.404V36.1321Z" fill="white"/>
<path d="M442.566 110.002V165.8H404C404.821 155.406 401.538 131.542 413.847 118.208C421.724 109.674 436.002 110.002 442.566 110.002Z" fill="#B89FD1"/>
<path d="M454.44 110.002V165.8H493.006C492.185 155.406 495.468 131.542 483.159 118.208C475.282 109.674 461.004 110.002 454.44 110.002Z" fill="#B89FD1"/>
<ellipse cx="448.503" cy="135.675" rx="5.13495" ry="15.4049" fill="#D9D9D9" fill-opacity="0.2"/>
</g>
<g filter="url(#filter1_d_139_49)">
<rect x="51" y="71" width="136.93" height="51.35" rx="13.42" fill="#B66F3B" shape-rendering="crispEdges"/>
<rect x="56" y="76" width="127.35" height="41.76" rx="13.42" fill="white" fill-opacity="0.5"/>
<path d="M66.4433 101.185C63.9298 101.185 62.2888 99.9088 62.3409 98.2028H63.9819L63.9688 98.346C63.9688 99.1925 65.1279 99.8828 66.5735 99.8828C67.8368 99.8828 68.6312 99.2967 68.6312 98.32C68.6312 97.4214 67.98 96.9395 66.2219 96.3665C65.4014 96.119 64.7242 95.8585 64.1642 95.5981C63.1223 95.1292 62.6014 94.439 62.6014 93.4492C62.6014 91.7692 63.9688 90.6362 66.1828 90.6362C66.9382 90.6362 67.5893 90.7403 68.1233 90.9617C69.1782 91.3785 69.8294 92.1729 69.9205 93.1106H68.3056C68.1363 92.4204 67.2898 91.9385 66.1047 91.9385C64.9716 91.9385 64.1902 92.5376 64.1902 93.319C64.1902 93.5925 64.2684 93.8008 64.4377 93.9702C64.607 94.1525 64.8284 94.3088 65.1149 94.426C65.4144 94.5692 65.8833 94.7255 66.5084 94.9209C67.4591 95.2204 68.1754 95.5069 68.6833 95.7804C69.7643 96.3534 70.2331 97.1218 70.2331 98.32C70.2331 100.13 68.8266 101.185 66.4433 101.185ZM71.4054 90.6362H72.9943V94.7385C73.6585 94.0874 74.4008 93.6836 75.1952 93.5404C75.3515 93.5143 75.5078 93.5013 75.6771 93.5013C76.0808 93.5013 76.4715 93.6055 76.8492 93.8008C77.6176 94.2176 78.0474 95.0902 78.0474 96.2753V100.925H76.4585V96.4837C76.4585 95.4548 76.0808 94.9339 75.3255 94.9339C74.5701 94.9339 73.7887 95.3246 72.9943 96.093V100.925H71.4054V90.6362ZM79.8952 93.7227H81.484V100.925H79.8952V93.7227ZM79.6607 91.665C79.6607 91.105 80.0775 90.7013 80.6896 90.7013C81.3017 90.7013 81.7184 91.105 81.7184 91.665C81.7184 92.199 81.3017 92.6157 80.6896 92.6157C80.0775 92.6157 79.6607 92.199 79.6607 91.665ZM84.3769 95.0251H82.9444V93.7227H84.3769V93.1367C84.3769 91.4306 85.0802 90.6492 86.7602 90.6492C86.9816 90.6492 87.2291 90.6622 87.5156 90.7013V92.0687L87.0207 92.0427C86.2784 92.0427 85.9658 92.3292 85.9658 93.1106V93.7227H87.6328V95.0251H85.9658V100.925H84.3769V95.0251ZM91.6951 101.029C91.1481 101.029 90.7183 100.951 90.3928 100.807C89.7676 100.508 89.5202 99.8307 89.5202 98.4763V95.0251H88.4132V93.7227H89.5202V91.9385H91.109V93.7227H92.8412V95.0251H91.109V98.5804C91.109 98.867 91.1351 99.0884 91.1872 99.2316C91.3044 99.5312 91.63 99.6353 92.3593 99.6353C92.6328 99.6353 92.8021 99.6353 92.8672 99.6223V100.912C92.4114 100.99 92.0207 101.029 91.6951 101.029Z" fill="white"/>
</g>
<g filter="url(#filter2_d_139_49)">
<rect x="148" y="131" width="205.4" height="51.35" rx="13.42" fill="#B66F3B" shape-rendering="crispEdges"/>
<rect x="153" y="136" width="195.81" height="41.76" rx="13.42" fill="white" fill-opacity="0.5"/>
<path d="M163.443 161.185C160.93 161.185 159.289 159.909 159.341 158.203H160.982L160.969 158.346C160.969 159.193 162.128 159.883 163.574 159.883C164.837 159.883 165.631 159.297 165.631 158.32C165.631 157.421 164.98 156.939 163.222 156.366C162.401 156.119 161.724 155.859 161.164 155.598C160.122 155.129 159.601 154.439 159.601 153.449C159.601 151.769 160.969 150.636 163.183 150.636C163.938 150.636 164.589 150.74 165.123 150.962C166.178 151.378 166.829 152.173 166.921 153.111H165.306C165.136 152.42 164.29 151.938 163.105 151.938C161.972 151.938 161.19 152.538 161.19 153.319C161.19 153.592 161.268 153.801 161.438 153.97C161.607 154.152 161.828 154.309 162.115 154.426C162.414 154.569 162.883 154.726 163.508 154.921C164.459 155.22 165.175 155.507 165.683 155.78C166.764 156.353 167.233 157.122 167.233 158.32C167.233 160.13 165.827 161.185 163.443 161.185ZM168.405 153.723H169.903L169.968 154.491C170.58 153.853 171.31 153.54 172.156 153.54C174.005 153.54 175.282 155.038 175.282 157.265C175.282 158.06 175.139 158.763 174.852 159.349C174.279 160.534 173.237 161.185 171.987 161.185C171.166 161.185 170.502 160.899 169.994 160.339V163.49H168.405V153.723ZM169.994 158.75C170.255 159.427 170.919 159.87 171.791 159.87C172.938 159.87 173.693 158.893 173.693 157.265C173.693 155.793 173.003 154.843 171.961 154.843C171.166 154.843 170.476 155.233 169.994 155.95V158.75ZM179.5 161.185C177.521 161.185 176.323 159.818 176.323 157.434C176.323 155.038 177.729 153.54 179.513 153.54C180.438 153.54 181.141 153.866 181.623 154.517L181.701 153.723H183.199V160.925H181.701L181.636 160.117C181.115 160.833 180.399 161.185 179.5 161.185ZM177.912 157.434C177.912 158.958 178.589 159.87 179.696 159.87C180.633 159.87 181.415 159.114 181.61 158.073V156.132C181.259 155.364 180.49 154.843 179.709 154.843C178.706 154.843 177.912 155.833 177.912 157.434ZM188.121 161.185C185.881 161.185 184.501 159.766 184.501 157.421C184.501 155.051 185.946 153.54 188.186 153.54C190.009 153.54 191.325 154.621 191.572 156.288H189.957C189.788 155.403 189.098 154.843 188.16 154.843C186.949 154.843 186.102 155.846 186.102 157.356C186.102 158.971 186.884 159.883 188.225 159.883C189.176 159.883 189.931 159.206 189.983 158.268H191.624C191.546 160.026 190.166 161.185 188.121 161.185ZM196.416 161.185C194.059 161.185 192.666 159.818 192.666 157.421C192.666 156.601 192.835 155.898 193.161 155.312C193.786 154.166 194.919 153.54 196.286 153.54C196.937 153.54 197.523 153.671 198.057 153.944C199.112 154.478 199.776 155.624 199.868 157.135V157.903H194.254C194.307 159.153 195.114 159.909 196.416 159.909C197.289 159.909 197.888 159.596 198.109 159.075H199.75C199.386 160.417 198.135 161.185 196.416 161.185ZM194.267 156.679H198.253C198.162 155.533 197.406 154.843 196.26 154.843C195.166 154.843 194.411 155.533 194.267 156.679Z" fill="white"/>
</g>
<g filter="url(#filter3_d_139_49)">
<rect x="51" y="130" width="85.58" height="51.35" rx="13.42" fill="#B66F3B" shape-rendering="crispEdges"/>
<rect x="56" y="135" width="76" height="41.76" rx="13.42" fill="white" fill-opacity="0.5"/>
<path d="M67.1856 160.185C64.4116 160.185 62.6014 158.284 62.6014 155.015C62.6014 153.895 62.7837 152.931 63.1614 152.137C63.9037 150.522 65.3102 149.636 67.1856 149.636C69.4517 149.636 71.1187 150.978 71.3531 153.022H69.7512C69.4387 151.733 68.5661 151.056 67.1726 151.056C65.3623 151.056 64.2032 152.462 64.2032 154.911C64.2032 157.307 65.3233 158.766 67.1856 158.766C68.6833 158.766 69.5689 157.997 69.7903 156.63H71.4443C71.3401 158.792 69.7122 160.185 67.1856 160.185ZM75.632 160.029C75.085 160.029 74.6553 159.951 74.3297 159.807C73.7046 159.508 73.4571 158.831 73.4571 157.476V154.025H72.3501V152.723H73.4571V150.938H75.046V152.723H76.7781V154.025H75.046V157.58C75.046 157.867 75.072 158.088 75.1241 158.232C75.2413 158.531 75.5669 158.635 76.2962 158.635C76.5697 158.635 76.739 158.635 76.8041 158.622V159.912C76.3483 159.99 75.9576 160.029 75.632 160.029ZM77.9553 152.723H79.479L79.5441 153.686C80.0651 152.996 80.7032 152.592 81.3674 152.553C81.8493 152.527 82.2921 152.566 82.6698 152.684V154.077C82.1488 153.921 81.6539 153.856 81.1981 153.895C80.56 153.934 79.9609 154.325 79.5441 155.002V159.925H77.9553V152.723ZM85.3594 160.055C84.2524 160.055 83.9659 159.365 83.9659 157.854V149.636H85.5548V157.971C85.5548 158.635 85.7371 158.779 86.5315 158.727V159.886C86.1669 160.003 85.7761 160.055 85.3594 160.055Z" fill="white"/>
</g>
<g filter="url(#filter4_d_139_49)">
<path d="M33.4895 27.7093H44.4292V26.2536H33.2755V24.3268H46.9767V29.5932H36.0371V31.1775H47.4691V33.147H33.4895V27.7093ZM31.9696 22.4001V14.5004H41.8174V16.5984H34.5814V20.3021H42.2455V22.4001H31.9696ZM44.3649 23.235V14.0723H46.9767V17.4976H49.246V19.6384H46.9767V23.235H44.3649ZM51.4564 21.137H58.2856V17.048H51.2423V14.9286H60.8975V23.2564H54.0682V27.6665H62.289V29.7859H51.4564V21.137ZM64.1943 33.147V14.0723H66.8061V33.147H64.1943ZM77.2587 17.0694H70.0013V14.9286H79.8705V29.6789H77.2587V17.0694ZM83.5956 33.147V14.0723H86.2074V33.147H83.5956Z" fill="#E76100"/>
</g>
<g filter="url(#filter5_d_139_49)">
<path d="M32.4405 53.7549H44.3435V52.4918H32.205V50.6078H46.9553V55.596H35.0523V56.9447H47.4477V58.9142H32.4405V53.7549ZM31.2631 49.1735V47.1397H48.1328V49.1735H31.2631ZM31.8197 44.2924L38.392 41.4879V39.8609H41.0038V41.4879L47.5762 44.2924L46.5914 46.1977L39.6979 43.2862L32.8045 46.1977L31.8197 44.2924ZM51.2423 47.0113H57.8575V42.9223H51.0283V40.8029H60.4693V49.1307H53.8541V53.5408H61.8608V55.6602H51.2423V47.0113ZM63.7662 59.0213V39.9465H66.378V46.7972H68.6472V48.938H66.378V59.0213H63.7662ZM75.8029 55.7458C72.3134 55.7458 70.5151 53.1554 70.5151 48.1245C70.5151 43.0935 72.3134 40.5031 75.8029 40.5031C79.2925 40.5031 81.0908 43.0935 81.0908 48.1245C81.0908 53.1554 79.2925 55.7458 75.8029 55.7458ZM73.1269 48.1245C73.1269 51.7425 74.0261 53.605 75.8029 53.605C77.5798 53.605 78.479 51.7425 78.479 48.1245C78.479 44.5065 77.5798 42.644 75.8029 42.644C74.0261 42.644 73.1269 44.5065 73.1269 48.1245ZM83.5956 59.0213V39.9465H86.2074V59.0213H83.5956ZM98.865 59.2568C94.4549 59.2568 91.8645 57.5869 91.8645 55.0822C91.8645 52.5774 94.4549 50.9076 98.865 50.9076C103.275 50.9076 105.865 52.5774 105.865 55.0822C105.865 57.5869 103.275 59.2568 98.865 59.2568ZM90.3873 48.7025V40.3747H100.449V42.4727H92.9991V46.6045H100.877V48.7025H90.3873ZM94.4763 55.0822C94.4763 56.3452 96.189 57.1159 98.865 57.1159C101.541 57.1159 103.254 56.3452 103.254 55.0822C103.254 53.8191 101.541 53.0484 98.865 53.0484C96.189 53.0484 94.4763 53.8191 94.4763 55.0822ZM102.997 50.3938V39.9465H105.609V50.3938H102.997Z" fill="#E76100"/>
</g>
<g filter="url(#filter6_d_139_49)">
<path d="M114.693 50.1583L113.13 48.4242L117.776 44.7634V42.4727H113.666V40.3747H124.498V42.4727H120.388V44.7634L125.033 48.4242L123.471 50.1583L119.082 46.6687L114.693 50.1583ZM116.106 59.0213V51.5498H129.593V59.0213H116.106ZM118.718 56.9233H126.982V53.6478H118.718V56.9233ZM123.599 45.791V43.6502H126.982V39.9465H129.593V50.1797H126.982V45.791H123.599ZM133.602 48.6811H136.385L135.936 42.9437H133.709V40.8243H148.866V42.9437H146.533L146.447 48.6811H148.973V50.8005H133.602V48.6811ZM132.853 56.5593V54.4185H149.722V56.5593H132.853ZM138.547 42.9437L139.018 48.6811H143.835L143.921 42.9437H138.547Z" fill="#E76100"/>
</g>
<g filter="url(#filter7_d_139_49)">
<path d="M142.083 29.8287L140.092 28.4585L144.909 21.6715V18.46H140.841V16.319H144.909V13.6428H147.521V16.319H151.589V18.46H147.521V21.6715L152.338 28.4585L150.347 29.8287L146.215 23.941L142.083 29.8287ZM153.794 33.1473V14.071H156.406V33.1473H153.794ZM159.666 28.5441H163.349V25.3968H160.844V19.0809H172.576V16.9399H160.629V14.8631H175.188V21.0292H163.456V23.3201H175.638V25.3968H172.855V28.5441H176.537V30.6851H159.666V28.5441ZM165.961 28.5441H170.243V25.3968H165.961V28.5441Z" fill="#47E172"/>
<path d="M193.234 33.3828C188.824 33.3828 186.233 31.7128 186.233 29.2078C186.233 26.7029 188.824 25.0329 193.234 25.0329C197.644 25.0329 200.235 26.7029 200.235 29.2078C200.235 31.7128 197.644 33.3828 193.234 33.3828ZM183.707 22.5493L188.374 18.6099V16.5973H184.242V14.4992H195.311V16.5973H190.986V18.6099L195.632 22.0997L194.133 23.8553L189.68 20.5582L185.248 24.2621L183.707 22.5493ZM188.845 29.2078C188.845 30.471 190.558 31.2418 193.234 31.2418C195.91 31.2418 197.623 30.471 197.623 29.2078C197.623 27.9446 195.91 27.1739 193.234 27.1739C190.558 27.1739 188.845 27.9446 188.845 29.2078ZM197.366 24.519V14.071H199.978V17.9248H202.248V20.0658H199.978V24.519H197.366ZM213.643 25.1399L209.297 21.2005L204.951 25.0971L203.323 23.4485L207.991 19.2308V16.5973H203.88V14.4992H214.714V16.5973H210.603V19.2308L215.27 23.4914L213.643 25.1399ZM206.321 32.9332V26.1034H208.933V30.835H220.109V32.9332H206.321ZM213.814 20.3441V18.2031H217.197V14.071H219.809V27.6449H217.197V20.3441H213.814Z" fill="#D0A0FF"/>
<path d="M102.001 29.8715C98.5112 29.8715 96.7128 27.2809 96.7128 22.2496C96.7128 17.2182 98.5112 14.6276 102.001 14.6276C105.491 14.6276 107.289 17.2182 107.289 22.2496C107.289 27.2809 105.491 29.8715 102.001 29.8715ZM99.3248 22.2496C99.3248 25.8679 100.224 27.7305 102.001 27.7305C103.778 27.7305 104.677 25.8679 104.677 22.2496C104.677 18.6313 103.778 16.7686 102.001 16.7686C100.224 16.7686 99.3248 18.6313 99.3248 22.2496ZM109.794 33.1473V14.071H112.406V33.1473H109.794ZM115.666 22.7634H122.796V20.9007H116.844V14.4135H131.06V16.4689H119.456V18.8454H131.274V20.9007H125.408V22.7634H132.537V24.8188H115.666V22.7634ZM116.672 29.6788C116.672 27.4308 119.413 26.082 124.102 26.082C128.79 26.082 131.531 27.4308 131.531 29.6788C131.531 31.9269 128.79 33.2757 124.102 33.2757C119.413 33.2757 116.672 31.9269 116.672 29.6788ZM119.284 29.6788C119.284 30.1713 119.712 30.5353 120.569 30.8136C121.361 31.0919 122.539 31.2204 124.102 31.2204C125.664 31.2204 126.842 31.0919 127.656 30.8136C128.491 30.5353 128.919 30.1499 128.919 29.6788C128.919 29.2078 128.491 28.8224 127.656 28.5441C126.842 28.2658 125.664 28.1373 124.102 28.1373C122.539 28.1373 121.361 28.2658 120.569 28.5441C119.712 28.8224 119.284 29.1864 119.284 29.6788Z" fill="#DC6D6D"/>
</g>
<g filter="url(#filter8_d_139_49)">
<path d="M402.062 94.2684L400.649 92.4699L407.393 88.0167V86.0898H401.441V83.9488H415.957V86.0898H410.005V88.0167L416.749 92.4699L415.336 94.2684L408.699 89.8579L402.062 94.2684ZM400.263 99.6851V97.5441H407.393V93.0694H410.005V97.5441H417.134V99.6851H400.263ZM421.1 91.2924L420.201 89.3441L426.796 86.8605V85.5973H420.844V83.542H435.36V85.5973H429.408V86.8605L436.002 89.3441L435.103 91.2924L428.102 88.659L421.1 91.2924ZM419.666 94.2684V92.213H436.537V94.2684H429.622V98.0794H427.01V94.2684H419.666ZM420.844 101.869V95.8099H423.456V99.7708H435.702V101.869H420.844Z" fill="#D0A0FF"/>
<path d="M463.49 96.8376H474.43V95.4459H463.276V93.5404H476.978V98.6788H466.038V100.199H477.471V102.147H463.49V96.8376ZM461.756 92.0417V83.3921H464.368V85.4261H469.206V83.3921H471.818V92.0417H461.756ZM464.368 89.9436H469.206V87.5242H464.368V89.9436ZM474.366 92.4485V83.071H476.978V86.6464H479.248V88.7874H476.978V92.4485H474.366ZM482.25 98.8501L480.174 97.6083L484.884 88.9159V83.6062H487.496V88.9159L492.206 97.6083L490.129 98.8501L486.19 91.4851L482.25 98.8501ZM493.769 102.147V83.071H496.381V89.9222H498.65V92.0632H496.381V102.147H493.769Z" fill="#D0A0FF"/>
</g>
<defs>
<filter id="filter0_d_139_49" x="198.396" y="10" width="302.609" height="163.8" filterUnits="userSpaceOnUse" color-interpolation-filters="sRGB">
<feFlood flood-opacity="0" result="BackgroundImageFix"/>
<feColorMatrix in="SourceAlpha" type="matrix" values="0 0 0 0 0 0 0 0 0 0 0 0 0 0 0 0 0 0 127 0" result="hardAlpha"/>
<feOffset dx="4" dy="4"/>
<feGaussianBlur stdDeviation="2"/>
<feComposite in2="hardAlpha" operator="out"/>
<feColorMatrix type="matrix" values="0 0 0 0 0 0 0 0 0 0 0 0 0 0 0 0 0 0 0.25 0"/>
<feBlend mode="normal" in2="BackgroundImageFix" result="effect1_dropShadow_139_49"/>
<feBlend mode="normal" in="SourceGraphic" in2="effect1_dropShadow_139_49" result="shape"/>
</filter>
<filter id="filter1_d_139_49" x="51" y="71" width="144.93" height="59.35" filterUnits="userSpaceOnUse" color-interpolation-filters="sRGB">
<feFlood flood-opacity="0" result="BackgroundImageFix"/>
<feColorMatrix in="SourceAlpha" type="matrix" values="0 0 0 0 0 0 0 0 0 0 0 0 0 0 0 0 0 0 127 0" result="hardAlpha"/>
<feOffset dx="4" dy="4"/>
<feGaussianBlur stdDeviation="2"/>
<feComposite in2="hardAlpha" operator="out"/>
<feColorMatrix type="matrix" values="0 0 0 0 0 0 0 0 0 0 0 0 0 0 0 0 0 0 0.25 0"/>
<feBlend mode="normal" in2="BackgroundImageFix" result="effect1_dropShadow_139_49"/>
<feBlend mode="normal" in="SourceGraphic" in2="effect1_dropShadow_139_49" result="shape"/>
</filter>
<filter id="filter2_d_139_49" x="148" y="131" width="213.4" height="59.35" filterUnits="userSpaceOnUse" color-interpolation-filters="sRGB">
<feFlood flood-opacity="0" result="BackgroundImageFix"/>
<feColorMatrix in="SourceAlpha" type="matrix" values="0 0 0 0 0 0 0 0 0 0 0 0 0 0 0 0 0 0 127 0" result="hardAlpha"/>
<feOffset dx="4" dy="4"/>
<feGaussianBlur stdDeviation="2"/>
<feComposite in2="hardAlpha" operator="out"/>
<feColorMatrix type="matrix" values="0 0 0 0 0 0 0 0 0 0 0 0 0 0 0 0 0 0 0.25 0"/>
<feBlend mode="normal" in2="BackgroundImageFix" result="effect1_dropShadow_139_49"/>
<feBlend mode="normal" in="SourceGraphic" in2="effect1_dropShadow_139_49" result="shape"/>
</filter>
<filter id="filter3_d_139_49" x="51" y="130" width="93.5801" height="59.35" filterUnits="userSpaceOnUse" color-interpolation-filters="sRGB">
<feFlood flood-opacity="0" result="BackgroundImageFix"/>
<feColorMatrix in="SourceAlpha" type="matrix" values="0 0 0 0 0 0 0 0 0 0 0 0 0 0 0 0 0 0 127 0" result="hardAlpha"/>
<feOffset dx="4" dy="4"/>
<feGaussianBlur stdDeviation="2"/>
<feComposite in2="hardAlpha" operator="out"/>
<feColorMatrix type="matrix" values="0 0 0 0 0 0 0 0 0 0 0 0 0 0 0 0 0 0 0.25 0"/>
<feBlend mode="normal" in2="BackgroundImageFix" result="effect1_dropShadow_139_49"/>
<feBlend mode="normal" in="SourceGraphic" in2="effect1_dropShadow_139_49" result="shape"/>
</filter>
<filter id="filter4_d_139_49" x="31.9697" y="14.0723" width="62.2373" height="27.0747" filterUnits="userSpaceOnUse" color-interpolation-filters="sRGB">
<feFlood flood-opacity="0" result="BackgroundImageFix"/>
<feColorMatrix in="SourceAlpha" type="matrix" values="0 0 0 0 0 0 0 0 0 0 0 0 0 0 0 0 0 0 127 0" result="hardAlpha"/>
<feOffset dx="4" dy="4"/>
<feGaussianBlur stdDeviation="2"/>
<feComposite in2="hardAlpha" operator="out"/>
<feColorMatrix type="matrix" values="0 0 0 0 0 0 0 0 0 0 0 0 0 0 0 0 0 0 0.25 0"/>
<feBlend mode="normal" in2="BackgroundImageFix" result="effect1_dropShadow_139_49"/>
<feBlend mode="normal" in="SourceGraphic" in2="effect1_dropShadow_139_49" result="shape"/>
</filter>
<filter id="filter5_d_139_49" x="31.2627" y="39.8608" width="82.6025" height="27.3959" filterUnits="userSpaceOnUse" color-interpolation-filters="sRGB">
<feFlood flood-opacity="0" result="BackgroundImageFix"/>
<feColorMatrix in="SourceAlpha" type="matrix" values="0 0 0 0 0 0 0 0 0 0 0 0 0 0 0 0 0 0 127 0" result="hardAlpha"/>
<feOffset dx="4" dy="4"/>
<feGaussianBlur stdDeviation="2"/>
<feComposite in2="hardAlpha" operator="out"/>
<feColorMatrix type="matrix" values="0 0 0 0 0 0 0 0 0 0 0 0 0 0 0 0 0 0 0.25 0"/>
<feBlend mode="normal" in2="BackgroundImageFix" result="effect1_dropShadow_139_49"/>
<feBlend mode="normal" in="SourceGraphic" in2="effect1_dropShadow_139_49" result="shape"/>
</filter>
<filter id="filter6_d_139_49" x="113.131" y="39.9465" width="44.5918" height="27.0747" filterUnits="userSpaceOnUse" color-interpolation-filters="sRGB">
<feFlood flood-opacity="0" result="BackgroundImageFix"/>
<feColorMatrix in="SourceAlpha" type="matrix" values="0 0 0 0 0 0 0 0 0 0 0 0 0 0 0 0 0 0 127 0" result="hardAlpha"/>
<feOffset dx="4" dy="4"/>
<feGaussianBlur stdDeviation="2"/>
<feComposite in2="hardAlpha" operator="out"/>
<feColorMatrix type="matrix" values="0 0 0 0 0 0 0 0 0 0 0 0 0 0 0 0 0 0 0.25 0"/>
<feBlend mode="normal" in2="BackgroundImageFix" result="effect1_dropShadow_139_49"/>
<feBlend mode="normal" in="SourceGraphic" in2="effect1_dropShadow_139_49" result="shape"/>
</filter>
<filter id="filter7_d_139_49" x="96.7129" y="13.6427" width="131.396" height="27.7401" filterUnits="userSpaceOnUse" color-interpolation-filters="sRGB">
<feFlood flood-opacity="0" result="BackgroundImageFix"/>
<feColorMatrix in="SourceAlpha" type="matrix" values="0 0 0 0 0 0 0 0 0 0 0 0 0 0 0 0 0 0 127 0" result="hardAlpha"/>
<feOffset dx="4" dy="4"/>
<feGaussianBlur stdDeviation="2"/>
<feComposite in2="hardAlpha" operator="out"/>
<feColorMatrix type="matrix" values="0 0 0 0 0 0 0 0 0 0 0 0 0 0 0 0 0 0 0.25 0"/>
<feBlend mode="normal" in2="BackgroundImageFix" result="effect1_dropShadow_139_49"/>
<feBlend mode="normal" in="SourceGraphic" in2="effect1_dropShadow_139_49" result="shape"/>
</filter>
<filter id="filter8_d_139_49" x="400.264" y="83.0709" width="106.387" height="27.0763" filterUnits="userSpaceOnUse" color-interpolation-filters="sRGB">
<feFlood flood-opacity="0" result="BackgroundImageFix"/>
<feColorMatrix in="SourceAlpha" type="matrix" values="0 0 0 0 0 0 0 0 0 0 0 0 0 0 0 0 0 0 127 0" result="hardAlpha"/>
<feOffset dx="4" dy="4"/>
<feGaussianBlur stdDeviation="2"/>
<feComposite in2="hardAlpha" operator="out"/>
<feColorMatrix type="matrix" values="0 0 0 0 0 0 0 0 0 0 0 0 0 0 0 0 0 0 0.25 0"/>
<feBlend mode="normal" in2="BackgroundImageFix" result="effect1_dropShadow_139_49"/>
<feBlend mode="normal" in="SourceGraphic" in2="effect1_dropShadow_139_49" result="shape"/>
</filter>
</defs>
</svg>
